<svg width="174" height="64" viewBox="0 0 174 64" fill="none" xmlns="http://www.w3.org/2000/svg">
<path fill-rule="evenodd" clip-rule="evenodd" d="M38.4694 27.3356L38.3285 27.0964H37.6826L37.9109 26.7021L37.7752 26.473H37.5027L37.1415 27.0964H36.8886L37.0825 26.7626L36.9468 26.5321H36.6734L36.5089 26.8174L36.0967 26.1209L36.4329 26.1238L36.5677 25.8932L36.4329 25.6618L36.0382 25.6595L36.1651 25.4463L36.9001 25.4523L37.0358 25.221L36.9001 24.9905L36.435 24.9859L36.7588 24.4395L36.6182 24.2012H36.3374L36.0144 24.7484L35.7789 24.3575H35.5064L35.3698 24.589L35.7433 25.2073L35.6176 25.4213L35.4182 25.0905H35.1449L35.0083 25.3203L35.1796 25.6027H34.356L34.5253 25.3203L34.389 25.0905H34.1167L33.9171 25.4213L33.7916 25.2073L34.1641 24.589L34.0275 24.359L33.755 24.3575L33.5195 24.7484L33.1967 24.2012H32.9165L32.776 24.4395L33.0981 24.9859L32.6347 24.9905L32.4972 25.221L32.6347 25.4523L33.3697 25.4463L33.4949 25.6595L33.1019 25.6618L32.9662 25.8932L33.1019 26.1238L33.4381 26.1209L33.0269 26.8174L32.8622 26.533H32.5872L32.4531 26.7626L32.6453 27.0964H32.3933L32.0313 26.473H31.7596L31.623 26.7021L31.8514 27.0964H31.2051L31.0645 27.3356L31.2051 27.573H31.8514L31.623 27.9667L31.7596 28.1981H32.0313L32.3933 27.573H32.6453L32.4531 27.9068L32.5872 28.1383H32.8622L33.0269 27.8537L33.4381 28.5496L33.1019 28.5465L32.9662 28.7779L33.1019 29.0085L33.4949 29.0116L33.3697 29.2256L32.6347 29.2179L32.4972 29.4501L32.6347 29.6792L33.0981 29.6838L32.776 30.2307L32.9165 30.4691H33.1967L33.5195 29.9227L33.755 30.3121H34.0275L34.1641 30.0812L33.7916 29.4638L33.9171 29.249L34.1167 29.5798H34.389L34.5253 29.35L34.3568 29.0678H35.1796L35.0083 29.35L35.1449 29.5806H35.4182L35.6176 29.249L35.7433 29.4638L35.3698 30.0812L35.5064 30.3121H35.7789L36.0144 29.9227L36.3374 30.4691H36.6182L36.7588 30.2307L36.435 29.6838L36.9001 29.6792L37.0358 29.4501L36.9001 29.2179L36.1651 29.2256L36.0399 29.0116L36.4311 29.0085L36.5677 28.7779L36.4329 28.5465L36.0967 28.5496L36.5089 27.8537L36.6734 28.1383H36.9468L37.0825 27.9068L36.8886 27.573H37.1415L37.5027 28.1981H37.7752L37.9109 27.9667L37.6826 27.573H38.3285L38.4694 27.3356Z" fill="white"/>
<path fill-rule="evenodd" clip-rule="evenodd" d="M22.7193 28.1467L22.6187 27.9761H22.1579L22.3208 27.6947L22.2239 27.5312H22.0295L21.7718 27.9761H21.5913L21.7297 27.7379L21.6328 27.5734H21.4378L21.3203 27.777L21.0263 27.28L21.2661 27.282L21.3624 27.1175L21.2661 26.9524L20.9845 26.9508L21.075 26.7986L21.5995 26.8029L21.6964 26.6378L21.5995 26.4734L21.2676 26.4701L21.4987 26.0802L21.3984 25.9102H21.198L20.9675 26.3006L20.7995 26.0217H20.6051L20.5076 26.1869L20.7741 26.6281L20.6844 26.7808L20.5421 26.5447H20.3471L20.2496 26.7087L20.3719 26.9102H19.7842L19.905 26.7087L19.8078 26.5447H19.6134L19.471 26.7808L19.3815 26.6281L19.6473 26.1869L19.5498 26.0228L19.3554 26.0217L19.1873 26.3006L18.9569 25.9102H18.7571L18.6568 26.0802L18.8866 26.4701L18.556 26.4734L18.4579 26.6378L18.556 26.8029L19.0804 26.7986L19.1697 26.9508L18.8893 26.9524L18.7925 27.1175L18.8893 27.282L19.1292 27.28L18.8358 27.777L18.7183 27.574H18.522L18.4264 27.7379L18.5635 27.9761H18.3837L18.1254 27.5312H17.9315L17.8341 27.6947L17.997 27.9761H17.5358L17.4355 28.1467L17.5358 28.3161H17.997L17.8341 28.5971L17.9315 28.7622H18.1254L18.3837 28.3161H18.5635L18.4264 28.5543L18.522 28.7195H18.7183L18.8358 28.5164L19.1292 29.013L18.8893 29.0107L18.7925 29.1759L18.8893 29.3404L19.1697 29.3426L19.0804 29.4953L18.556 29.4898L18.4579 29.6555L18.556 29.819L18.8866 29.8222L18.6568 30.2125L18.7571 30.3826H18.9569L19.1873 29.9927L19.3554 30.2706H19.5498L19.6473 30.1059L19.3815 29.6653L19.471 29.512L19.6134 29.748H19.8078L19.905 29.5841L19.7847 29.3827H20.3719L20.2496 29.5841L20.3471 29.7486H20.5421L20.6844 29.512L20.7741 29.6653L20.5076 30.1059L20.6051 30.2706H20.7995L20.9675 29.9927L21.198 30.3826H21.3984L21.4987 30.2125L21.2676 29.8222L21.5995 29.819L21.6964 29.6555L21.5995 29.4898L21.075 29.4953L20.9857 29.3426L21.2649 29.3404L21.3624 29.1759L21.2661 29.0107L21.0263 29.013L21.3203 28.5164L21.4378 28.7195H21.6328L21.7297 28.5543L21.5913 28.3161H21.7718L22.0295 28.7622H22.2239L22.3208 28.5971L22.1579 28.3161H22.6187L22.7193 28.1467Z" fill="white"/>
<path fill-rule="evenodd" clip-rule="evenodd" d="M57.2764 24.6613L57.0343 24.4016L56.2316 24.5742L56.405 24.023L56.1722 23.7745L55.8335 23.8473L55.559 24.7187L55.2446 24.7863L55.3922 24.3196L55.159 24.0693L54.8193 24.1423L54.6945 24.5409L53.9874 23.7853L54.406 23.6991L54.5091 23.3764L54.2768 23.1248L53.7856 23.2274L53.8836 22.9285L54.7989 22.7397L54.9029 22.4158L54.6697 22.1656L54.0903 22.2841L54.34 21.5185L54.0986 21.2598L53.7495 21.3348L53.5011 22.1013L53.099 21.6784L52.7603 21.7512L52.6553 22.0754L53.2925 22.7441L53.1962 23.0437L52.8558 22.6858L52.516 22.7588L52.4105 23.0809L52.7025 23.3862L51.6788 23.6062L51.8101 23.21L51.5765 22.9607L51.238 23.0335L51.0825 23.498L50.8666 23.2655L51.1566 22.3975L50.9225 22.148L50.5834 22.219L50.4 22.7678L49.8456 22.1739L49.4974 22.2487L49.3894 22.5825L49.9426 23.1756L49.3679 23.3051L49.2615 23.6283L49.4971 23.8792L50.4091 23.6753L50.6243 23.9069L50.1365 24.0147L50.0325 24.3385L50.2657 24.5889L50.6828 24.4955L50.3665 25.4711L50.0822 25.1616L49.7403 25.235L49.638 25.5563L49.9702 25.9199L49.657 25.9872L49.0326 25.309L48.695 25.3816L48.5892 25.7028L48.9834 26.132L48.1801 26.3047L48.0723 26.6395L48.3134 26.897L49.1167 26.7243L48.943 27.2748L49.1776 27.5259L49.5152 27.4533L49.7903 26.5796L50.1036 26.5123L49.9581 26.9785L50.1894 27.2304L50.5313 27.1569L50.6564 26.7592L51.3622 27.5144L50.9435 27.6003L50.8395 27.9243L51.0727 28.1745L51.562 28.0734L51.4663 28.3729L50.5506 28.5597L50.4446 28.885L50.6796 29.1331L51.2569 29.0149L51.0095 29.7809L51.2509 30.0396L51.5991 29.9648L51.8475 29.1994L52.2492 29.6205L52.5879 29.5477L52.6931 29.2242L52.0574 28.5563L52.1533 28.2557L52.4939 28.6135L52.8324 28.5408L52.9375 28.2188L52.6491 27.9131L53.6718 27.6932L53.5378 28.0897L53.7721 28.3399L54.1119 28.2669L54.267 27.8014L54.4833 28.0349L54.1918 28.9021L54.4262 29.1526L54.7648 29.0798L54.9486 28.5328L55.503 29.1257L55.852 29.0507L55.9601 28.7169L55.4045 28.1235L55.9814 27.9935L56.086 27.6725L55.8523 27.4202L54.9409 27.6261L54.7255 27.3935L55.2109 27.2851L55.3162 26.9621L55.0838 26.7104L54.6668 26.8041L54.9844 25.829L55.2686 26.1388L55.6083 26.0657L55.7123 25.7418L55.3779 25.3786L55.6923 25.3111L56.3161 25.9916L56.6548 25.9188L56.7588 25.595L56.3649 25.1665L57.1677 24.994L57.2764 24.6613Z" fill="white"/>
<path fill-rule="evenodd" clip-rule="evenodd" d="M67.8916 18.9551L67.7268 18.7784L67.1806 18.8958L67.2986 18.5208L67.1402 18.3517L66.9098 18.4012L66.723 18.9941L66.5091 19.0401L66.6095 18.7226L66.4508 18.5523L66.2197 18.602L66.1348 18.8732L65.6536 18.359L65.9385 18.3004L66.0087 18.0808L65.8505 17.9096L65.5163 17.9794L65.583 17.7761L66.2058 17.6476L66.2766 17.4272L66.1179 17.2569L65.7237 17.3376L65.8935 16.8167L65.7293 16.6406L65.4918 16.6917L65.3228 17.2132L65.0492 16.9254L64.8188 16.975L64.7473 17.1956L65.1808 17.6506L65.1153 17.8544L64.8837 17.6109L64.6525 17.6606L64.5807 17.8798L64.7794 18.0875L64.0828 18.2372L64.1722 17.9676L64.0133 17.798L63.7829 17.8475L63.6771 18.1635L63.5302 18.0053L63.7276 17.4147L63.5682 17.245L63.3375 17.2933L63.2127 17.6667L62.8355 17.2626L62.5986 17.3135L62.5251 17.5406L62.9015 17.9442L62.5105 18.0323L62.4381 18.2522L62.5984 18.4229L63.2189 18.2842L63.3653 18.4418L63.0334 18.5151L62.9627 18.7355L63.1214 18.9058L63.4051 18.8423L63.1899 19.5061L62.9965 19.2955L62.7639 19.3455L62.6943 19.5641L62.9203 19.8114L62.7072 19.8573L62.2823 19.3958L62.0526 19.4452L61.9807 19.6638L62.2489 19.9558L61.7022 20.0732L61.6289 20.3011L61.793 20.4763L62.3396 20.3588L62.2214 20.7333L62.381 20.9042L62.6107 20.8548L62.7979 20.2603L63.011 20.2145L62.912 20.5317L63.0695 20.7031L63.3021 20.6531L63.3872 20.3825L63.8674 20.8963L63.5825 20.9548L63.5118 21.1752L63.6705 21.3455L64.0034 21.2768L63.9383 21.4805L63.3152 21.6076L63.2431 21.829L63.403 21.9977L63.7958 21.9174L63.6275 22.4385L63.7917 22.6145L64.0286 22.5636L64.1977 22.0428L64.471 22.3294L64.7014 22.2798L64.773 22.0597L64.3404 21.6053L64.4057 21.4008L64.6374 21.6442L64.8678 21.5947L64.9393 21.3756L64.743 21.1676L65.4389 21.018L65.3477 21.2878L65.5072 21.4581L65.7384 21.4084L65.8439 21.0916L65.9911 21.2505L65.7927 21.8406L65.9522 22.011L66.1826 21.9615L66.3077 21.5893L66.6849 21.9927L66.9224 21.9417L66.9959 21.7145L66.6179 21.3108L67.0104 21.2224L67.0816 21.004L66.9226 20.8323L66.3024 20.9724L66.1558 20.8141L66.4861 20.7404L66.5578 20.5206L66.3996 20.3493L66.1159 20.4131L66.3321 19.7496L66.5254 19.9604L66.7566 19.9107L66.8273 19.6902L66.5998 19.4432L66.8137 19.3972L67.2381 19.8602L67.4686 19.8107L67.5393 19.5904L67.2713 19.2988L67.8176 19.1814L67.8916 18.9551Z" fill="white"/>
<path fill-rule="evenodd" clip-rule="evenodd" d="M79.6306 12.048L79.691 11.9854H92.138V12.2986L92.0775 12.4238L92.0171 12.6118L91.9567 12.7997L91.8962 12.8623L91.8358 12.9877L91.7754 13.1129L91.715 13.2382L91.6545 13.3009L91.5942 13.4888L91.5337 13.6141L91.4733 13.6767L91.4129 13.7394L91.3524 13.8647L91.2921 13.99L91.2316 14.0526L91.1712 14.2406L91.1108 14.3658L91.0503 14.4285L90.9899 14.4911L90.9295 14.6164L90.8691 14.8043L90.8086 14.867L90.7483 14.9923L90.6878 15.1175L90.6274 15.1802L90.567 15.3055L90.5065 15.3681L90.4461 15.4934L90.3857 15.6187L90.3253 15.6814L90.2649 15.8066L90.2044 15.9319L90.144 15.9945L90.0836 16.1199L90.0232 16.2451L89.9627 16.3078L89.9024 16.4331L89.8419 16.4957L89.7815 16.5584L89.7211 16.6837L89.6606 16.8089L89.6002 16.8716L89.5398 16.9343L89.4794 17.0595L89.4189 17.1222L89.3585 17.1848L89.2981 17.2474L89.2377 17.3101L86.0353 17.3728L85.9749 17.498L85.9145 17.5607L85.854 17.6859L85.7936 17.7486L85.7332 17.8112L85.6728 17.9365L85.6123 18.1245L85.4311 18.1871L85.3707 18.3124L85.3102 18.4377L85.2498 18.5003L85.1894 18.563L85.129 18.6256L85.0686 18.6882L85.0081 18.8136L84.9477 18.8762L84.8873 18.9388L84.8269 19.0015L84.7664 19.0641L84.706 19.1268L84.6456 19.2521L84.5852 19.3147L84.5248 19.3774L84.4643 19.44L84.4039 19.5026L84.3435 19.5653L84.2831 19.6906L84.2227 19.7532L84.1622 19.8159L84.1018 19.8785L84.0414 19.9411L83.981 20.0038L83.9205 20.129L83.8601 20.1917L83.7997 20.2544L83.7393 20.317L83.6789 20.3796L83.6184 20.5049L83.558 20.5676L83.4976 20.6302L83.4372 20.6929L83.3767 20.7555L83.3163 20.8808L83.2559 21.0061L83.1351 21.0688L83.0746 21.1314L83.0142 21.2567L82.9538 21.3193L82.8933 21.4446L82.833 21.5073H82.7121V21.6325L82.6517 21.6952L82.5913 21.8204L82.4704 21.8831L82.41 21.9458L82.3495 22.0084L82.2892 22.071L82.2287 22.1963L82.1683 22.259L82.1079 22.3216L82.0474 22.3843L81.987 22.4469L81.9266 22.5096L81.8662 22.5722L81.8058 22.6348L81.7454 22.6975L81.6849 22.7601L81.6245 22.8227L81.5641 22.8854L81.5036 22.9481L81.4433 23.0107L81.3828 23.0733L81.3224 23.136L81.262 23.1986L81.2015 23.2612L81.1411 23.3239H81.0203V23.4492L80.8995 23.5118L80.839 23.5745L80.7786 23.6371L80.7182 23.6998L80.6577 23.8251L80.5974 23.8877L80.5369 23.9504L80.4161 24.013L80.3556 24.0756L80.2952 24.1383L80.2348 24.2636L80.1139 24.3262L80.0536 24.3889L79.9931 24.4515L79.9327 24.5141L79.8723 24.5768L79.8118 24.6395L79.7514 24.7021L79.691 24.7647L79.5702 24.8274L79.5097 24.89L79.4493 25.0153L79.3889 25.078L79.3285 25.1406L79.2076 25.2032L79.1472 25.2659L79.0868 25.3285L79.0264 25.3912L78.9659 25.4538L78.9055 25.5164L78.8451 25.5791L78.7242 25.6418L78.6638 25.7044L78.6034 25.8297L78.5429 25.8923L78.4826 25.9549L78.2409 26.1429L78.1805 26.2055L78.12 26.3308L77.8179 26.5188L77.7575 26.5814L77.697 26.6441L77.5762 26.7067L77.5158 26.7693L77.395 26.832L77.3345 26.8947L77.2741 26.9573L77.2137 27.0199L77.1533 27.0826L77.0324 27.1452L76.972 27.2078L76.9116 27.2705L76.7908 27.3332L76.7303 27.3958L76.6699 27.4584L76.6095 27.5211L76.549 27.5837L76.4282 27.6463L76.3073 27.709L76.2469 27.7717L76.1865 27.8969L76.0657 27.9596L75.8844 28.0222L75.824 28.0849L75.7636 28.1474L75.6427 28.2101L75.5823 28.2728L75.5219 28.3355L75.4614 28.3981L75.3406 28.4607L75.2198 28.5233L75.1593 28.586L75.0989 28.6486L75.0385 28.7113L74.9781 28.774L74.7968 28.8366L74.7364 28.8992L74.676 28.9619L74.6155 29.0871L74.5551 29.1497L74.4343 29.2125L74.253 29.2751L74.1926 29.3377L74.1322 29.4004L74.0113 29.463L73.9509 29.5257L73.8905 29.5883L73.7696 29.651L73.6488 29.7136L73.5884 29.7763L73.528 29.8389H73.4071V29.9641L73.2863 30.0269L73.105 30.0895L73.0445 30.1521L72.9237 30.2148L72.8029 30.2774L72.7425 30.34L72.682 30.4027L72.5007 30.4654L72.3799 30.528L72.3195 30.5905L72.1986 30.6533L72.0778 30.7159L72.0174 30.7785L71.8966 30.8412L71.7757 30.9038L71.6548 30.9664L71.534 31.0291L71.4736 31.0918L71.4132 31.1544L71.3527 31.2171L71.1111 31.2797L70.9902 31.3423L70.9298 31.405L70.8089 31.4677L70.7486 31.5303L70.6881 31.5928L70.5673 31.6556L70.386 31.7182L70.3256 31.7808L70.2047 31.8435L70.0839 31.9062L69.963 31.9688L69.9026 32.0313L69.7818 32.0941L69.6005 32.1567L69.5401 32.2193L69.4797 32.282L69.3588 32.3447L69.238 32.4072L69.1776 32.47L68.9963 32.5326L68.8754 32.5951L68.7546 32.6579L68.6942 32.7205L68.6338 32.7831L68.5129 32.8457L68.3921 32.9085L68.1504 32.9711L68.0295 33.0336L67.9691 33.0964L67.8482 33.159L67.7879 33.2215L67.6066 33.2843L67.4858 33.347L67.3045 33.4095L67.1836 33.4721L67.1232 33.5349L67.0023 33.5975L66.8211 33.6601L66.7607 33.7228L66.519 33.7854L66.3377 33.848L66.2773 33.9108L66.1564 33.9734L66.0356 34.0359L65.9148 34.0987L65.6731 34.1614L65.5522 34.2239L65.371 34.2865L65.2502 34.3493L65.1293 34.4118L65.0689 34.4744L64.8876 34.5372L64.6459 34.5998L64.4042 34.6624L64.3438 34.7251L64.1625 34.7878L64.0417 34.8503L63.9813 34.9129L63.6187 34.9757L63.4375 35.0383L63.3166 35.101L63.1957 35.1636L63.0749 35.2262L62.8936 35.2888L62.7124 35.3516L62.4103 35.4142L62.2895 35.4767L62.1082 35.5395L61.9873 35.6021L61.8665 35.6647L61.6852 35.7274L61.3831 35.7901L61.2018 35.8526L61.0206 35.9152L60.8998 35.978L60.7789 36.0406L60.5372 36.1032L60.3559 36.1659L59.9934 36.2285L59.6913 36.2911L59.6309 36.3538L59.3892 36.4165L59.2683 36.4791L59.0871 36.5418L58.7245 36.6044L58.4829 36.667L58.362 36.7296L58.1203 36.7924L57.9995 36.8549L57.8182 36.9177L57.637 36.9803L57.214 37.0429L56.9119 37.1055L56.7306 37.1682L56.5493 37.2309L56.3076 37.2935L56.066 37.3562C53.7128 37.8714 50.5256 38.1705 49.3477 38.1705C33.3396 38.1705 17.0412 38.1705 1.0332 38.1705L1.32354 37.9198L1.38398 37.8572L1.56525 37.7319L1.68608 37.6693L1.74652 37.6067L1.86734 37.5441L1.98817 37.4813L2.04861 37.4188L2.10899 37.356L2.22988 37.2934L2.41115 37.2308L2.47153 37.1682L2.59242 37.1054L2.71325 37.0429L2.83407 36.9803L2.89452 36.9175L3.07578 36.8549L3.19661 36.7923L3.25706 36.7296L3.37788 36.667L3.49871 36.6044L3.61959 36.5418L3.67997 36.479L3.86125 36.4164L3.98213 36.3538L4.10296 36.2911L4.22378 36.2285L4.34461 36.1659L4.4655 36.1032L4.58632 36.0406L4.70715 35.9779L4.82804 35.9152L4.94886 35.8526L5.06969 35.79L5.19058 35.7274L5.25095 35.6646L5.43223 35.6021L5.61349 35.5393L5.73432 35.4767L5.85521 35.4141L5.97603 35.3515L6.09686 35.2888L6.27813 35.2262L6.51984 35.1635L6.70111 35.101L6.82193 35.0382L7.00321 34.9756L7.18447 34.9129L7.3053 34.8503L7.48657 34.7877L7.66784 34.7249L7.84911 34.6623L7.96994 34.5998L8.09082 34.5371L8.21165 34.4744L8.57419 34.4118L8.8159 34.3492L9.05755 34.2865L9.17838 34.2239L9.29926 34.1613L9.48053 34.0985L9.60136 34.0359L9.78263 33.9733L10.0244 33.9107L10.266 33.848L10.3868 33.7854L10.6286 33.7226L10.8098 33.66L11.1724 33.5975L11.4745 33.5348L11.7766 33.4721L11.9578 33.4095L12.1391 33.3469L12.3808 33.2841L12.5621 33.2215L12.9246 33.159L13.2267 33.0962L13.5288 33.0336L13.7705 32.971L14.0122 32.9084L14.2539 32.8456L14.7373 32.7831L15.0998 32.7204L15.5228 32.6577L15.8853 32.5951L16.1874 32.5325L16.4895 32.4698L16.9125 32.4072L17.6375 32.3446L18.3022 32.2818L19.0877 32.2192L19.6919 32.1567L20.4169 32.094L21.142 32.0313L23.4984 31.9688H32.5618H44.4649L45.5525 31.9061L46.7005 31.8433L47.6069 31.7808L48.5132 31.7182L49.1174 31.6555L49.6008 31.5928L50.4467 31.5302L50.9905 31.4676L51.5343 31.4049L51.8364 31.3423L52.1989 31.2796L52.501 31.2169L52.9845 31.1544L53.4074 31.0917L53.7095 31.0289L54.072 30.9664L54.2533 30.9038L54.495 30.8411L54.6763 30.7785L55.0992 30.7159L55.4617 30.6532L55.8847 30.5905L56.2473 30.5279L56.5493 30.4653L56.8514 30.4025L57.0932 30.34L57.3348 30.2774L57.5765 30.2147L57.7578 30.152L57.9391 30.0894L58.0599 30.0268L58.1807 29.9641L58.4829 29.9015L58.7245 29.8388L59.0267 29.7761L59.2079 29.7136L59.3892 29.6509L59.6309 29.5882L59.8121 29.5256L60.0538 29.463L60.2955 29.4002L60.4768 29.3377L60.658 29.2751L60.8393 29.2124L60.8998 29.1497L61.2018 29.0871L61.3831 29.0245L61.5644 28.9618L61.6852 28.8992L61.8665 28.8365L61.9873 28.7738L62.1082 28.7112L62.3498 28.6486L62.5311 28.586L62.7124 28.5233L62.8333 28.4607L62.9541 28.398L63.1354 28.3354L63.3166 28.2727L63.4979 28.2101L63.6792 28.1474L63.8 28.0848L63.9208 28.0222L64.0417 27.9595L64.2229 27.8968L64.4042 27.8342L64.5855 27.7716L64.7063 27.7089L64.8272 27.6463L64.948 27.5837L65.0689 27.521L65.2502 27.4583L65.4918 27.3957L65.6126 27.3331L65.7335 27.2704L65.9148 27.2078L65.9752 27.1451L66.0961 27.0825L66.2773 27.0199L66.3981 26.9572L66.519 26.8946L66.6398 26.8319L66.7002 26.7693L66.7607 26.7066L67.0023 26.644L67.1232 26.5814L67.244 26.5187L67.3649 26.456L67.4858 26.3934L67.5461 26.3308L67.667 26.2681L67.8482 26.2055L67.9691 26.1429L68.09 26.0802L68.2108 26.0175L68.2712 25.9549L68.3317 25.8923L68.5129 25.8296L68.6338 25.767L68.6942 25.7043L68.815 25.6417L68.9359 25.579L69.0567 25.5164L69.1171 25.4537L69.2984 25.3911L69.4192 25.3285L69.4797 25.2658L69.6005 25.2031L69.7214 25.1405L69.7818 25.0779L69.9026 25.0152L70.0235 24.9526L70.2047 24.89L70.2651 24.8273L70.3256 24.7646L70.386 24.7021L70.5068 24.6394L70.6277 24.5767L70.6881 24.5141L70.8089 24.4515L70.8694 24.3888L70.9298 24.3262L71.0507 24.2635L71.1111 24.2009L71.2319 24.1382L71.2923 24.0756L71.4132 24.0129L71.4736 23.8877L71.5945 23.825L71.7757 23.7623L71.8361 23.6997L71.957 23.6371L72.0174 23.5744L72.1383 23.5118L72.1986 23.4492L72.3195 23.3865L72.4404 23.3238L72.5612 23.2612L72.6216 23.1986L72.682 23.1359L72.8029 23.0733L72.8633 23.0107L72.9842 22.948L73.0445 22.8853L73.1654 22.8227L73.2258 22.7601L73.3467 22.6974L73.4071 22.5721L73.528 22.5095L73.5884 22.4468L73.7092 22.3842L73.7696 22.3215L73.8301 22.2589L73.8905 22.1963L74.0113 22.1336L74.1322 22.0709L74.1926 22.0084L74.253 21.9457L74.3134 21.883L74.3739 21.8204L74.4343 21.7578L74.5551 21.6951L74.6155 21.6325L74.676 21.5698L74.7968 21.5072L74.8572 21.4445L74.9176 21.3819L74.9781 21.3193L75.0385 21.2566L75.1593 21.194L75.2198 21.1313L75.2802 21.0687L75.3406 21.006L75.401 20.9434L75.4614 20.8807L75.5823 20.8181L75.7031 20.7555L75.7636 20.6301L75.824 20.5675L75.9449 20.5049L76.0657 20.4422L76.1261 20.3796L76.1865 20.2543L76.2469 20.1916L76.3678 20.129L76.4282 20.0664L76.549 20.0037L76.6095 19.9411L76.6699 19.8784L76.7303 19.8158L76.7908 19.7531L76.8511 19.6905L76.972 19.6278L77.0324 19.5652L77.0929 19.5026L77.1533 19.4399L77.2137 19.3773L77.2741 19.3147L77.3345 19.252L77.395 19.1893L77.5158 19.1267L77.5762 19.0641L77.6367 19.0014L77.697 18.9388L77.7575 18.8135L77.8783 18.7508L77.9388 18.6882L77.9992 18.6256L78.0596 18.5629L78.12 18.5003L78.1805 18.4376L78.2409 18.375L78.3617 18.3123L78.4221 18.2497L78.4826 18.1244L78.5429 18.0618L78.6034 17.9991L78.7242 17.9364L78.7847 17.8738L78.8451 17.7485L78.9055 17.6859L78.9659 17.6233L79.0264 17.5606L79.0868 17.4979L79.1472 17.4353L79.2167 17.3132L74.7779 17.31L75.2802 16.7462L75.3406 16.621L75.401 16.5583L75.4614 16.4956L75.5823 16.433L75.6427 16.3704L75.7031 16.3077L75.7636 16.2451L75.824 16.1198L76.1261 15.8692L76.1865 15.7439L76.2469 15.6813L76.549 15.4307L76.6095 15.3054L76.7303 15.2428L76.8511 15.1801L76.9116 15.0548L76.972 14.9296L77.0324 14.8669L77.1533 14.8042L77.2741 14.7417L77.3345 14.6163L77.395 14.5537L77.697 14.2405L77.7575 14.1152L77.8179 14.0525L77.9388 13.9899L77.9992 13.9273L78.0596 13.8646L78.12 13.7393L78.1805 13.614L78.3013 13.5514L78.3617 13.4888L78.4221 13.4261L78.4826 13.3634L78.5429 13.2382L78.6034 13.1755L78.6638 13.1129L78.7242 13.0503L78.7847 12.9876L78.8451 12.9249L78.9055 12.7997L78.9659 12.737L79.0264 12.6744L79.1472 12.6117L79.2076 12.5491L79.268 12.4238L79.3285 12.3611L79.3889 12.2985L79.4493 12.2359L79.5097 12.1732L79.5702 12.1105L79.6306 12.048Z" fill="white"/>
<path fill-rule="evenodd" clip-rule="evenodd" d="M110.946 12.627L110.874 12.7527L110.802 12.8154L110.729 13.1296L110.657 13.2552L110.584 13.4437L110.512 13.7578L110.44 13.8834L110.367 14.0091L110.295 14.1348L110.222 14.2604L110.15 14.4488L110.078 14.6373L110.005 14.8257L109.933 14.8886L109.86 15.0142L109.788 15.1399L109.716 15.2655L109.643 15.3283L109.571 15.5796L109.499 15.7053L109.426 15.8309L109.354 15.9566L109.281 16.0822L109.209 16.145L109.136 16.4591L109.064 16.5847L108.992 16.7103L108.919 16.836L108.847 16.9616L108.775 17.0245L108.702 17.1501L108.63 17.4014L108.557 17.5271L108.195 18.1552L108.123 18.4065L108.051 18.5322L107.978 18.6578L107.906 18.8463L107.833 18.9719L107.761 19.0348L107.689 19.2233L107.616 19.3489L107.544 19.4117L107.471 19.5373L107.399 19.6629L107.327 19.7258L107.254 19.9142L107.182 20.1655L107.109 20.2284L107.037 20.354L106.965 20.4797L106.892 20.6053L106.82 20.6681L106.747 20.8565L106.675 21.0451L106.603 21.1078L106.53 21.2335L106.458 21.359L106.386 21.422L106.313 21.5476L106.241 21.7361L106.168 21.7989L106.096 21.9245L106.024 21.9874L105.951 22.0501L105.879 22.2387L105.806 22.3643L105.734 22.4899L105.662 22.6156L105.589 22.6784L105.517 22.7412L105.444 22.804L105.372 23.0552L105.3 23.1181L105.227 23.2437L105.155 23.3694L105.082 23.4322L105.01 23.4951L104.938 23.5579L104.865 23.8091L104.793 23.872L104.72 23.9348L104.648 24.0604L104.576 24.1861L104.503 24.2489L104.431 24.3746L104.359 24.5002L104.286 24.6258L103.924 25.1284L102.983 26.3848L102.911 26.5105L102.838 26.5733L102.766 26.6989L102.693 26.7617L102.621 26.8246L102.549 26.9502L102.476 27.1387L102.404 27.2015L102.331 27.2644L102.259 27.39L102.187 27.4528L102.114 27.5156L102.042 27.6412L101.969 27.7669L101.897 27.8925L101.825 27.9553L101.752 28.0182L101.68 28.081L101.607 28.2066L101.463 28.4579L101.173 28.772L100.884 29.1489L100.811 29.2118L100.739 29.2746L100.666 29.4003L100.449 29.7143L100.377 29.7772L100.304 29.8399L100.232 29.9028L100.16 30.0912L100.087 30.1541L100.015 30.2169L99.9425 30.3425L99.8701 30.4054L99.7977 30.4682L99.7253 30.531L99.6529 30.7195L99.5805 30.7823L99.5081 30.8451L99.3634 30.9079L99.291 30.9708L99.2185 31.1592L99.1462 31.2221L99.0738 31.2848L99.0013 31.4105L98.929 31.4733L98.8566 31.5361L98.7842 31.599L98.7118 31.7246L98.6394 31.7874L98.567 31.8502L98.4222 31.9759L98.3498 32.0387L98.2774 32.1644L98.205 32.29L98.1327 32.3529L98.0602 32.4157L97.9878 32.4785L97.9155 32.5413L97.8431 32.6041L97.7706 32.6669L97.6983 32.7926L97.6259 32.8554L97.5534 32.9182L97.4087 32.9811L97.3363 33.1695L97.2639 33.2322L97.1915 33.2951L97.1191 33.358L96.9744 33.4207L96.902 33.5464L96.8295 33.6721L96.7571 33.7349L96.6848 33.7977L96.6123 33.8605L96.5399 33.9234L96.4675 33.9861L96.3227 34.1747L96.2504 34.2374L96.178 34.3003L96.1056 34.4259L96.0332 34.4888L95.9607 34.5516L95.8884 34.6144L95.816 34.74L95.7436 34.8028L95.6713 34.8657L95.5988 34.9285L95.5264 34.9913L95.4541 35.0541L95.3816 35.1797L95.3092 35.2426L95.2369 35.3054L95.1645 35.3683L95.092 35.431L95.0197 35.4939L94.9473 35.6195L94.8748 35.6823L94.7301 35.7452L94.5853 35.808L94.5129 35.9964L94.3681 36.0593L94.2957 36.1221L94.2234 36.185L94.1509 36.2477L94.0785 36.3106L94.0062 36.4362L93.9338 36.499L93.789 36.5619L93.6442 36.6247L93.5718 36.8131L93.427 36.8759L93.3547 36.9387L93.2822 37.0016L93.2098 37.0644L93.1374 37.1272L93.065 37.2528L92.9202 37.3157L92.8478 37.3785L92.7755 37.4414L92.703 37.5042L92.6306 37.6298L92.5583 37.6926L92.4859 37.7554L92.4134 37.8183L92.2687 37.8811L92.1962 37.9439L91.9791 38.1952L91.9067 38.258L91.8344 38.3209L91.7619 38.3836L91.6895 38.5092V38.6978H99.0738L99.1462 38.6349L99.2185 38.5721L99.291 38.5092L99.3634 38.4465L99.4357 38.3836L99.5081 38.3209L99.5805 38.1952L99.6529 38.1323L99.7253 38.0696L99.7977 38.0067L99.9425 37.8811L100.015 37.7554L100.087 37.6926L100.16 37.6298L100.232 37.567L100.304 37.5042L100.377 37.4414L100.449 37.3785L100.522 37.2528L100.739 37.0644L100.811 36.9387L100.884 36.8131L100.956 36.7503L101.028 36.6875L101.173 36.6247L101.246 36.499L101.318 36.3735L101.39 36.3106L101.463 36.2477L101.535 36.1221L101.607 36.0593L101.68 35.9964L101.752 35.8708L101.825 35.808L101.897 35.7452L101.969 35.6195L102.042 35.5566L102.114 35.4939L102.187 35.431L102.259 35.3683L102.331 35.2426L102.404 35.1169L102.476 35.0541L102.621 34.9913L102.693 34.8657L102.766 34.74L102.838 34.6144L102.911 34.5516L102.983 34.4888L103.055 34.4259L103.128 34.3631L103.2 34.2374L103.273 34.1747L103.345 34.049L103.417 33.9861L103.49 33.9234L103.562 33.7977L103.635 33.7349L103.707 33.6721L103.779 33.5464L103.852 33.4207L103.996 33.358L104.069 33.2322L104.141 33.1067L104.214 32.9811L104.286 32.9182L104.359 32.8554L104.431 32.7298L104.503 32.6669L104.576 32.5413L104.648 32.4785L104.72 32.3529L104.793 32.2272L104.865 32.1644L104.938 32.1015L105.01 32.0387L105.082 31.8502L105.155 31.7246L105.227 31.6618L105.3 31.599L105.372 31.4733L105.444 31.4105L105.517 31.2848L105.589 31.2221L105.662 31.0965L105.734 30.9708L105.879 30.9079L105.951 30.8451L106.024 30.5938L106.096 30.531L106.168 30.4054L106.241 30.3425L106.313 30.2798L106.386 30.1541L106.458 30.0912L106.53 30.0284L106.603 29.8399L106.675 29.7143H106.747L106.675 29.9028L106.603 30.0284L106.53 30.0912L106.458 30.1541L106.386 30.3425L106.313 30.531L106.241 30.7823L106.168 30.8451L106.096 30.9079L106.024 31.0336L105.951 31.0965L105.879 31.2848L105.806 31.4733L105.734 31.599L105.662 31.6618L105.589 31.7874L105.517 31.9131L105.444 31.9759L105.372 32.2272L105.3 32.4157L105.227 32.4785L105.155 32.5413L105.082 32.6669L105.01 32.7298L104.938 32.9182L104.865 33.1067L104.793 33.2322L104.72 33.2951L104.648 33.4207L104.576 33.5464L104.503 33.6093L104.431 33.7977L104.359 34.049L104.286 34.1118L104.214 34.1747L104.141 34.3003L104.069 34.3631L103.996 34.4888L103.924 34.6144L103.852 34.74L103.779 34.8657L103.707 34.9285L103.635 34.9913L103.562 35.0541L103.49 35.2426L103.417 35.3683L103.345 35.4939L103.273 35.6195L103.2 35.7452L103.128 35.808L103.055 35.8708L102.983 36.0593L102.911 36.185L102.838 36.2477L102.766 36.3735L102.693 36.4362L102.621 36.5619L102.549 36.6247L102.476 36.8759L102.404 36.9387L102.331 37.0016L102.259 37.0644L102.187 37.1272L102.114 37.2528L102.042 37.4414L101.969 37.567L101.897 37.6926L101.825 37.8183L101.68 37.8811L101.607 38.0696L101.535 38.258L101.463 38.3836V38.6978H108.051L108.123 38.6349L108.195 38.5092L108.268 38.3836L108.34 38.258L108.413 38.0696L108.485 37.9439L108.557 37.8183L108.63 37.6926L108.702 37.567L108.775 37.4414L108.847 37.3157L108.919 37.1272L108.992 37.0016L109.064 36.8759L109.136 36.7503L109.209 36.6247L109.281 36.499L109.354 36.3106L109.426 36.185L109.499 36.0593L109.571 35.8708L109.643 35.808L109.716 35.7452L109.788 35.4939L109.86 35.3683L109.933 35.2426L110.005 35.1169L110.078 34.9913L110.15 34.9285L110.222 34.74L110.295 34.6144L110.367 34.4259L110.44 34.2374L110.512 34.1118L110.584 33.9234L110.657 33.7977L110.729 33.6093L110.802 33.358L110.874 33.2322L110.946 33.1067L111.019 32.9811L111.091 32.8554L111.164 32.6669L111.236 32.4785L111.308 32.29L111.381 32.1015L111.453 31.9759L111.526 31.8502L111.598 31.7246L111.67 31.4733L111.743 31.3477L111.815 31.1592L111.888 31.0336L111.96 30.9079L112.032 30.7823L112.105 30.531L112.177 30.4054L112.249 30.1541L112.322 29.9656L112.394 29.8399L112.467 29.6515L112.539 29.5887L112.611 29.2746L112.756 28.8976L112.829 28.772L112.901 28.5836L112.973 28.4579L113.046 28.3322L113.118 28.081L113.191 27.8297L113.263 27.6412L113.335 27.5156L113.408 27.3272L113.48 27.2015L113.553 26.8874L113.625 26.6361L113.697 26.3848L113.77 26.322L113.842 26.1336L113.915 25.945L113.987 25.7566L114.059 25.5682L113.771 24.5966L114.639 24.2489L114.766 24.1474L114.839 24.0217L114.939 23.9348L115.418 23.4464L115.517 23.2967L115.735 22.9538L115.874 22.7844L116.34 22.2112L116.867 21.5201L116.939 21.3945L117.084 21.1432L117.156 21.0803L117.229 20.9547L117.301 20.8919L117.374 20.7662L117.446 20.6406L117.518 20.515L118.258 19.398L118.765 18.595L118.982 18.2181L119.055 18.1552L119.127 18.0296L119.199 17.904L119.272 17.7783L119.344 17.6527L119.417 17.5271L119.489 17.4014L119.561 17.3386L119.634 17.2758L119.706 17.0874L119.779 16.9616L119.851 16.836L119.923 16.7732L119.996 16.6476L120.068 16.5219L120.14 16.4591L120.213 16.2705L120.285 16.145L120.358 16.0822L120.43 15.9566L120.502 15.8309L120.575 15.768L120.647 15.5796L120.72 15.454L120.792 15.3283L120.865 15.2655L120.937 15.1399L121.009 15.0142L121.082 14.9514L121.154 14.8257L121.226 14.6373L121.299 14.5116L121.371 14.4488L121.444 14.3232L121.516 14.1975L121.588 14.0719L121.661 13.9463L121.733 13.7578L121.806 13.695L121.878 13.5693L121.95 13.4437L122.023 13.318L122.095 13.2552L122.168 13.0667L122.24 12.8782L122.312 12.8154L122.385 12.6898L122.457 12.5642V12.4385H117.751L117.679 12.5642L117.607 12.8154L117.534 12.9411L117.462 13.0667L117.39 13.1924L117.317 13.2552L117.245 13.318L117.172 13.5065L117.1 13.6321L117.028 13.7578L116.955 13.8834L116.883 14.0091L116.81 14.0719L116.738 14.1348L116.666 14.3232L116.593 14.4488L116.521 14.5116L116.448 14.6373L116.376 14.7629L116.304 14.8257L116.231 15.077L116.159 15.2027L116.086 15.2655L116.014 15.3912L115.942 15.5168L115.869 15.6424L115.797 15.7053L115.725 15.8937L115.652 16.0193L115.58 16.0822L115.507 16.2078L115.435 16.2705L115.362 16.3335L115.29 16.4591L115.218 16.6476L115.145 16.7732L115.073 16.836L115 16.8989L114.928 16.9616L114.856 17.0874L114.783 17.3386L114.711 17.4014L114.639 17.5271L114.566 17.5899L114.494 17.7155L114.421 17.7783L114.349 17.8412L114.277 17.9667L114.204 18.0925L114.132 18.2181L114.059 18.2809L113.987 18.4065L113.915 18.5322L113.842 18.595L113.77 18.7206L113.697 18.8463L113.625 18.9091L113.553 18.9719L113.48 19.0348L113.408 19.1604L113.335 19.3489L113.263 19.4117L113.191 19.5373L113.118 19.6002L113.046 19.7258L112.973 19.7886L112.901 19.9142L112.829 20.0399L112.756 20.1655L112.684 20.2284L112.756 20.0399L112.829 19.9142L112.901 19.7886L112.973 19.6002L113.046 19.4117L113.118 19.2861L113.191 19.0976L113.263 18.9719L113.335 18.8463L113.408 18.7206L113.48 18.595L113.553 18.4065L113.625 18.2809L113.697 18.1552L113.77 17.9667L113.842 17.8412L113.915 17.7783L113.987 17.7155L114.059 17.4642L114.132 17.2758L114.204 17.1501L114.277 16.9616L114.349 16.8989L114.421 16.7732L114.494 16.5219L114.566 16.3963L114.639 16.145L114.711 16.0822L114.783 15.8937L114.856 15.768L114.928 15.6424L115 15.454L115.073 15.2655L115.145 15.077L115.218 14.9514L115.29 14.8257L115.362 14.7001L115.435 14.4488L115.507 14.2604L115.58 14.0719L115.652 13.9463L115.725 13.7578L115.797 13.6321L115.869 13.5065L115.942 13.2552L116.014 13.004L116.086 12.8154V12.4385H111.019L110.946 12.627Z" fill="white"/>
<path fill-rule="evenodd" clip-rule="evenodd" d="M88.0504 29.0354C88.3105 28.1807 91.9796 24.7528 92.8361 23.9159C93.4908 22.926 94.2442 22.1314 94.9314 21.165C95.2522 20.769 97.2149 17.9233 97.1606 18.4453C97.1063 19.1667 90.5856 29.0354 90.176 29.0354H88.0504ZM96.3773 12.2571L96.312 12.3209L96.1161 12.7037L96.0509 12.7675L95.9856 12.8313L95.9203 12.9589L95.8551 13.0865L95.7898 13.1503L95.7245 13.2141L95.6592 13.4054L95.5939 13.5331L95.5287 13.5969L95.3981 13.6606L95.3329 13.7882L95.2676 14.0434L95.2023 14.1072L95.137 14.171L95.0717 14.2986L95.0064 14.3624L94.9412 14.4262L94.8759 14.49L94.8106 14.6814L94.7454 14.809L94.6801 14.8727L94.6148 14.9365L94.5495 15.0004L94.4842 15.1279L94.3537 15.3194L94.2884 15.4469L94.2232 15.5107L94.1579 15.6383L94.0926 15.7021L94.0273 15.7659L93.962 15.8935L93.8967 16.0211L93.8315 16.0848L93.7662 16.1487L93.7009 16.2125L93.6357 16.2763L93.5704 16.4677L93.5051 16.5315L93.4398 16.5952L93.3745 16.7228L93.3092 16.7867L93.244 16.8504L93.1787 16.9142L93.1135 17.0418L93.0482 17.1694L92.9829 17.2332L92.9176 17.297L92.8523 17.3608L92.787 17.4246L92.7218 17.616L92.6565 17.6798L92.5912 17.7436L92.526 17.8073L92.4607 17.8711L92.3954 17.935L92.3301 18.0625L92.2648 18.1901L92.1995 18.2539L92.1343 18.3177L92.069 18.3815L92.0037 18.4453L91.9385 18.5091L91.8732 18.6367L91.8079 18.7643L91.7426 18.8281L91.6773 18.8919L91.6121 18.9557L91.5468 19.0195L91.4815 19.0833L91.4163 19.2109L91.351 19.3384L91.2857 19.4022L91.2204 19.4661L91.0898 19.5299L91.0246 19.7212L90.9593 19.785L90.894 19.8488L90.8288 19.9126L90.6982 19.9764L90.6329 20.104L90.5676 20.2316L90.5024 20.2954L90.4371 20.3592L90.3718 20.4868L90.3066 20.5505L90.2413 20.6144L90.176 20.742L90.1107 20.8057L90.0454 20.8695L89.9801 20.9334L89.9149 20.9972L89.7843 21.0609L89.7191 21.1247L89.6538 21.2524L89.5885 21.3161L89.5232 21.3799L89.4579 21.4437L89.3926 21.5075L89.3274 21.5713L89.2621 21.6989L89.1969 21.7627L89.0663 21.8265L89.001 21.8903L88.9357 21.9541L88.8704 22.0178L88.8052 22.1455L88.7399 22.2093L88.6746 22.273L88.6094 22.3368L88.5441 22.4007L88.4788 22.4645L88.4135 22.5282L88.3482 22.6558L88.2829 22.7197L88.2177 22.7834L88.1524 22.8472L88.0871 22.911L88.0219 23.0386L87.9566 23.1024L87.8913 23.1662L87.826 23.23L87.7607 23.2938L87.6955 23.3576L87.5649 23.549L87.4344 23.6128L87.3038 23.6766L87.2385 23.7403L87.1732 23.868L87.108 23.9318L87.0427 23.9955L86.9774 24.0593L86.8469 24.1231L86.7816 24.2507L86.7163 24.3145L86.651 24.3783L86.5205 24.4421L86.39 24.5059L86.1941 24.7611L86.1288 24.8249L86.0635 24.8887L85.9983 24.9525L85.933 25.0162L85.8677 25.0801L85.8025 25.1439L85.7372 25.2077L85.6719 25.2714L85.5413 25.3352L85.476 25.4628L85.4108 25.5266L85.2803 25.5904L85.215 25.6542L85.1497 25.718L85.0844 25.7818L85.0191 25.8456L84.9538 25.9732L84.8233 26.037L84.758 26.1008L84.6928 26.1646L84.6275 26.2284L84.5622 26.2922L84.4969 26.356L84.3663 26.4198L84.3011 26.4835L84.2358 26.5474L84.1705 26.6112L84.04 26.7387L83.9747 26.8025L83.9094 26.8664L83.8441 26.9302L83.7789 26.9939L83.7136 27.0577L83.6483 27.1215L83.5178 27.1854L83.4525 27.2491L83.3872 27.3129L83.3219 27.3767L83.1914 27.4405L83.1261 27.5043L83.0608 27.5681L82.9956 27.6319L82.9303 27.6957L82.7997 27.7595L82.6039 27.8233L82.5386 27.9508L82.4734 28.0147L82.3428 28.0785L82.2122 28.1423L82.1469 28.206L82.0817 28.2698L82.0164 28.3337L81.9511 28.3975L81.8206 28.4612L81.7553 28.525L81.69 28.5888L81.5595 28.6526L81.4942 28.7164L81.4289 28.7802L81.2984 28.844L81.2331 28.9078L81.1678 28.9716L81.0372 29.0354L80.9067 29.0992L80.8414 29.2268L80.7762 29.2906L80.7109 29.3544L80.5803 29.4181L80.4497 29.482L80.254 29.6733L80.1234 29.7371L79.9928 29.9285H79.8623L79.797 29.9923L79.6665 30.0561L79.6012 30.1199L79.5359 30.1837L79.4053 30.2475L79.2748 30.3113L79.2095 30.3751L79.1442 30.4389L79.079 30.5027L78.9484 30.5665L78.8178 30.6303L78.7526 30.6941L78.6873 30.7579L78.5568 30.8217L78.4915 30.8855L78.3609 30.9492L78.2956 31.0131L78.2303 31.0769L78.0345 31.1406L77.904 31.2044L77.8387 31.3321L77.7734 31.3958L77.6429 31.4596L77.5123 31.5234L77.4471 31.5872L77.3165 31.651L77.2512 31.7148L77.1206 31.7786L76.9901 31.8424L76.9248 31.9062L76.729 31.97L76.6637 32.0338L76.5984 32.0976L76.4679 32.1614L76.4026 32.2252L76.2721 32.289L76.1415 32.3528L76.011 32.4165L75.8804 32.4804L75.7499 32.5442L75.6846 32.608L75.554 32.6717L75.3582 32.7355L75.2929 32.7994L75.2276 32.8632L75.0971 32.9269L74.9665 32.9907L74.9012 33.0545L74.7707 33.1183L74.6402 33.1821L74.5096 33.2459L74.4444 33.3097L74.3137 33.3735L74.2485 33.4373L74.1179 33.5011L73.9874 33.5649L73.8568 33.6287L73.661 33.6925L73.5957 33.7563L73.5305 33.8201L73.3999 33.8838L73.2693 33.9477L73.1388 34.0115L72.8777 34.0753L72.8124 34.139L72.7471 34.2028L72.6165 34.2666L72.486 34.3305L72.3555 34.3942L72.1597 34.458L71.9638 34.5218L71.8985 34.5856L71.8333 34.6494L71.7027 34.7132L71.5069 34.777L71.3763 34.8408L71.1153 34.9046L71.0499 34.9684L70.9194 35.0322L70.7888 35.096L70.6583 35.1598L70.593 35.2236L70.3972 35.2874L70.2666 35.3511L70.2013 35.4149L70.0708 35.4788L69.9403 35.5426L69.8097 35.6063L69.6139 35.6701L69.4181 35.7339L69.2875 35.7978L69.0916 35.8615L68.9611 35.9253L68.8306 35.9891L68.7 36.0529L68.5042 36.1167L68.3736 36.1805L68.1778 36.2443L68.0472 36.3081L67.9167 36.3719L67.7209 36.4357L67.525 36.4995L67.2639 36.5633L67.1334 36.6271L67.0028 36.6909L66.807 36.7547L66.6764 36.8184L66.4806 36.8822L66.2847 36.9461L66.089 37.0099L66.0237 37.0736L65.9584 37.1374L65.8278 37.2012L65.5667 37.2651L65.2403 37.3288L65.0445 37.3926L64.7834 37.4564L64.6528 37.5202L64.5223 37.584L64.3265 37.6478L64.1306 37.7116L63.8695 37.7754L63.739 37.8392L63.5431 37.903L63.4126 37.9668L63.2821 38.0306L62.9556 38.0944L62.6946 38.1582C62.5827 38.1855 61.8857 38.4016 61.6714 38.5365C61.6 38.5815 61.6691 38.6685 61.7154 38.6685H76.1415L76.2721 38.6047L76.4026 38.541L76.5331 38.4772L76.6637 38.4134L76.729 38.3495L76.9248 38.2858L77.0554 38.222L77.1206 38.0944L77.2512 38.0306L77.3165 37.9668L77.4471 37.903L77.5776 37.8392L77.7081 37.7754L77.7734 37.7116L77.904 37.6478L77.9693 37.584L78.0345 37.5202L78.2303 37.4564L78.2956 37.3926L78.3609 37.3288L78.4262 37.2651L78.5568 37.2012L78.622 37.1374L78.7526 37.0736L78.8178 37.0099L78.9484 36.9461L79.0137 36.8822L79.079 36.8184L79.2095 36.7547L79.2748 36.6909L79.4706 36.6271L79.6012 36.5633L79.6665 36.4357L79.7317 36.3719L79.8623 36.3081L79.9928 36.2443L80.1234 36.1805L80.1887 36.1167L80.254 36.0529L80.3845 35.9891L80.4497 35.9253L80.515 35.8615L80.7109 35.7978L80.8414 35.7339L80.9067 35.6701L80.972 35.6063L81.0372 35.5426L81.1025 35.4788L81.2331 35.4149L81.3637 35.3511L81.4289 35.2874L81.4942 35.2236L81.6247 35.1598L81.69 35.096L81.7553 35.0322L81.8859 34.9684L81.9511 34.9046L82.0164 34.8408L82.0817 34.777L82.1469 34.7132L82.2122 34.6494L82.2775 34.5856L82.4081 34.5218L82.9303 34.139H85.0844L85.0191 34.2028L84.9538 34.2666L84.8886 34.3305L84.758 34.3942L84.6928 34.458L84.6275 34.5218L84.5622 34.6494L84.4969 34.7132L84.3663 34.777L84.3011 34.8408L84.2358 34.9046L84.1705 34.9684L84.1053 35.096L83.9747 35.1598L83.9094 35.2236L83.8441 35.2874L83.7789 35.3511L83.7136 35.4149L83.6483 35.4788L83.5831 35.5426L83.4525 35.6063L83.3872 35.6701L83.3219 35.7339L83.2566 35.8615L83.1914 35.9253L83.0608 35.9891L82.9956 36.0529L82.9303 36.1167L82.865 36.1805L82.7997 36.2443L82.7344 36.3081L82.6692 36.3719L82.6039 36.4357L82.5386 36.4995L82.4734 36.5633L82.4081 36.6271L82.3428 36.6909L82.2775 36.7547L82.2122 36.8184L82.1469 36.8822L82.0164 36.9461L81.9511 37.0099L81.69 37.2651L81.5595 37.3288L81.4289 37.3926L81.2984 37.4564L81.2331 37.584L81.1678 37.6478L81.1025 37.7116L80.972 37.7754L80.9067 37.8392L80.8414 37.903L80.7762 37.9668L80.7109 38.0306L80.5803 38.0944L80.515 38.1582L80.4497 38.222L80.0388 38.5282C80.0128 38.5877 80.0053 38.6685 80.0715 38.6685H88.4788L88.5441 38.6047L88.6094 38.4772L88.8052 38.2858L88.9357 38.222L89.001 38.0944L89.0663 37.9668L89.1316 37.903L89.1969 37.8392L89.3274 37.7754L89.3926 37.6478L89.4579 37.5202L89.5232 37.4564L89.5885 37.3926L89.6538 37.3288L89.7191 37.2651L89.7843 37.2012L89.8496 37.0736L89.9149 37.0099L89.9801 36.9461L90.0454 36.8184L90.1107 36.7547L90.176 36.6909L90.2413 36.6271L90.3066 36.5633L90.3718 36.4995L90.4371 36.3719L90.6329 36.1805L90.6982 36.1167L90.7635 35.9891L90.8288 35.8615L90.894 35.7978L91.0246 35.7339L91.0898 35.6701L91.1551 35.4788L91.2204 35.4149L91.2857 35.3511L91.351 35.2874L91.4163 35.1598L91.4815 35.096L91.5468 35.0322L91.6121 34.9684L91.6773 34.9046L91.7426 34.777L91.8079 34.6494L91.8732 34.5856L91.9385 34.5218L92.0037 34.458L92.069 34.3305L92.1343 34.2666L92.1995 34.2028L92.2648 34.139L92.3301 34.0753L92.3954 34.0115L92.4607 33.8838L92.526 33.7563L92.5912 33.6925L92.7218 33.6287L92.787 33.5011L92.8523 33.3735L92.9176 33.2459L92.9829 33.1821L93.0482 33.1183L93.1135 33.0545L93.1787 32.9269L93.244 32.8632L93.3092 32.7994L93.3745 32.6717L93.4398 32.4804L93.5704 32.4165L93.6357 32.3528L93.7009 32.2252L93.7662 32.0976L93.8315 32.0338L93.8967 31.9062L93.962 31.8424L94.0273 31.7148L94.0926 31.651L94.1579 31.5872L94.2232 31.4596L94.2884 31.3321L94.3537 31.2682L94.419 31.2044L94.4842 31.1406L94.5495 31.0131L94.6148 30.8855L94.6801 30.7579L94.7454 30.6941L94.8106 30.6303L94.8759 30.5027L94.9412 30.4389L95.0064 30.3113L95.0717 30.2475L95.137 30.1199L95.2023 29.9923L95.3329 29.9285L95.3981 29.8009L95.4634 29.6096L95.5287 29.5458L95.5939 29.482L95.6592 29.3544L95.7245 29.2906L95.7898 29.163L95.8551 29.0354L95.9203 28.9716L95.9856 28.844L96.0509 28.7164L96.1161 28.6526L96.1814 28.5888L96.2467 28.4612L96.312 28.3337L96.3773 28.206L96.4426 28.0785L96.5078 27.9508L96.5731 27.8871L96.6384 27.8233L96.7036 27.6319L96.7689 27.5043L96.8342 27.4405L96.8995 27.3129L96.9648 27.1854L97.0301 27.1215L97.0953 26.9939L97.1606 26.9302L97.2258 26.8025L97.2911 26.675L97.3564 26.6112L97.4217 26.5474L97.487 26.4198L97.5523 26.2284L97.6175 26.1646L97.6828 26.037L97.7481 25.9094L97.8133 25.7818L97.8786 25.718L97.9439 25.5904L98.0092 25.4628L98.0745 25.3352L98.1398 25.2077L98.205 25.0801L98.2703 24.9525L98.3356 24.8887L98.4008 24.7611L98.4661 24.6335L98.5314 24.5059L98.5967 24.3783L98.662 24.2507L98.7272 24.1231L98.7925 24.0593L98.8578 23.9318L98.923 23.8041L98.9883 23.6766L99.0536 23.549L99.1189 23.4851L99.1842 23.3576L99.2495 23.1662L99.3147 23.0386L99.38 22.911L99.4453 22.8472L99.5105 22.7197L99.5758 22.592L99.6411 22.4645L99.7064 22.273L99.7717 22.1455L99.8369 22.0178L99.9022 21.8903L99.9675 21.7627L100.033 21.6351L100.098 21.5075L100.163 21.3161L100.229 21.1885L100.294 21.1247L100.359 20.9972L100.424 20.8695L100.49 20.742L100.555 20.5505L100.62 20.3592L100.686 20.2316L100.751 20.104L100.816 19.9126L100.881 19.8488L100.947 19.5936L101.012 19.4661L101.077 19.2109L101.142 19.0833L101.208 19.0195L101.273 18.8919L101.338 18.7643L101.404 18.6367L101.469 18.4453L101.534 18.2539L101.599 18.1901L101.665 17.9988L101.73 17.8711L101.795 17.616L101.861 17.4246L101.926 17.1694L101.991 17.0418L102.056 16.9142L102.122 16.7228L102.187 16.5952L102.252 16.4038L102.317 16.2125L102.383 16.0211L102.448 15.8297L102.513 15.7659L102.579 15.7021L102.644 15.5107L102.709 15.3194L102.774 15.0642L102.84 14.9365L102.905 14.7452L102.97 14.5538L103.035 14.4262L103.101 14.1072L103.166 13.9796L103.231 13.7244L103.297 13.5969L103.362 13.4692L103.427 13.2779L103.492 13.1503L103.558 12.8951L103.623 12.7037L103.688 12.4485C103.734 12.3588 103.819 12.2294 103.819 12.1295V12.002H96.6751L96.3773 12.2571Z" fill="white"/>
<path fill-rule="evenodd" clip-rule="evenodd" d="M125.503 12.6708L125.431 12.8578L125.359 12.9201L125.287 13.1073L125.215 13.4192L125.144 13.6687L125.072 13.7936L125 14.0431L124.928 14.2303L124.856 14.4173L124.784 14.6045L124.712 14.9163L124.641 15.1035L124.569 15.2283L124.497 15.353L124.425 15.4779L124.353 15.6025L124.281 15.9144L124.21 16.1016L124.138 16.2263L124.066 16.4758L123.994 16.663L123.922 16.7877L123.85 16.9748L123.778 17.2244L123.707 17.4116L123.635 17.5987L123.563 17.7234L123.491 17.7857L123.419 17.9729L123.347 18.2848L123.276 18.472L123.204 18.5968L123.132 18.7215L123.06 18.9087L122.988 18.971L122.916 19.0959L122.845 19.4076L122.773 19.6571L122.701 19.782L122.629 19.9066L122.557 20.0315L122.485 20.2187L122.413 20.4682L122.342 20.6552L122.27 20.78L122.198 20.9047L122.126 21.0295L122.054 21.0919L121.982 21.2167L121.91 21.4663L121.839 21.6532L121.767 21.7781L121.695 21.9028L121.623 21.9653L121.551 22.1523L121.479 22.4643L121.408 22.6514L121.336 22.7139L121.264 22.8385L121.192 22.9632L121.12 23.0256L121.048 23.0881L120.977 23.3376L120.905 23.4623L120.833 23.6495L120.761 23.7741L120.689 23.899L120.617 23.9613L120.546 24.2732L120.474 24.398L120.402 24.5227L120.33 24.6475L120.258 24.7099L120.186 24.8347L120.114 24.9594L120.043 25.1466L119.971 25.2712L119.899 25.3961L119.755 25.5208L119.683 25.6456L119.612 25.895L119.54 26.0823L119.468 26.2071L119.396 26.3317L119.324 26.4566L119.252 26.5189L119.18 26.7061L119.109 26.8931L119.037 27.0803L118.965 27.1426L118.893 27.2051L118.821 27.3298L118.749 27.3921L118.678 27.5793L118.606 27.7665L118.534 27.8288L118.462 27.9537L118.39 28.016L118.318 28.0784L118.246 28.2032L118.175 28.3902L118.103 28.5151L118.031 28.6397L117.959 28.7022L117.887 28.7646L117.815 28.8892L117.744 29.0764L117.672 29.2635L117.6 29.3883L117.528 29.513L117.456 29.6379L117.384 29.7002L117.312 29.825L117.241 30.012L117.169 30.1369L117.097 30.2616L117.025 30.3241L116.953 30.4487L116.881 30.5111L116.809 30.6983L116.738 30.8231L116.666 30.9478L116.594 31.0726L116.522 31.135L116.45 31.1973L116.378 31.2596L116.307 31.5092L116.235 31.634L116.163 31.6963L116.091 31.8212L116.019 31.9459L115.947 32.0082L115.876 32.0707L115.66 32.3826L115.588 32.4449L115.516 32.5073L115.444 32.6321L115.373 32.8191L115.301 32.8816L115.229 32.944L115.157 33.0687L115.085 33.131L115.013 33.1935L114.941 33.3182L114.87 33.443L114.798 33.5677L114.726 33.6926L114.654 33.7549L114.582 33.8796L114.51 33.9421L114.439 34.1291L114.367 34.2539L114.295 34.3163L114.223 34.3786L114.151 34.5034L114.079 34.5658L114.008 34.6906L113.936 34.8776L113.864 34.9402L113.792 35.0648L113.72 35.1272L113.648 35.252L113.576 35.3143L113.505 35.5015L113.433 35.5639L113.361 35.6263L113.289 35.751L113.217 35.8134L113.145 35.8758L113.073 35.9381L113.002 36.1253L112.93 36.2501L112.714 36.4371L112.642 36.4997L112.571 36.6867L112.499 36.8115L112.427 36.8738L112.355 36.9362L112.283 36.9985L112.211 37.1234L112.139 37.1857L112.068 37.3106L111.996 37.4352L111.924 37.5601L111.852 37.6224L111.78 37.6847L111.708 37.7471L111.636 37.9343L111.565 38.0591L111.493 38.1214L111.421 38.1838L111.349 38.3086L111.277 38.371V38.5581H116.666L116.738 38.4333L116.809 38.3086L116.881 38.2461L116.953 38.1214L117.025 37.9966L117.097 37.8719L117.169 37.8096L117.241 37.7471L117.312 37.6847L117.384 37.5601L117.456 37.4352L117.528 37.3729L117.6 37.248L117.672 37.1234L117.744 36.9985L117.815 36.9362L117.887 36.749L117.959 36.6243L118.031 36.4997L118.103 36.4371L118.175 36.3125L118.246 36.1876L118.318 36.1253L118.39 36.063L118.462 35.9381L118.534 35.8134L118.606 35.751L118.821 35.5015L118.893 35.3767L118.965 35.252L119.037 35.1272L119.109 35.0025L119.18 34.8776L119.252 34.8153L119.324 34.6281L119.396 34.5034L119.468 34.4411L119.54 34.3163L119.612 34.2539L119.683 34.1291L119.755 34.0044L119.827 33.8796L119.899 33.8172L119.971 33.6926L120.043 33.63L120.114 33.5054L120.186 33.3805L120.258 33.2558L120.33 33.131L120.402 33.0063L120.546 32.8816L120.617 32.8191L120.689 32.6321L120.761 32.4449L120.833 32.3202L120.905 32.1954L120.977 32.0707L121.048 32.0082L121.12 31.9459L121.192 31.7587L121.264 31.634L121.336 31.5092L121.408 31.3845L121.479 31.2596L121.551 31.1973L121.623 31.0101L121.695 30.8231L121.767 30.6983L121.839 30.5736L121.91 30.4487L121.982 30.3864L122.054 30.3241L122.126 30.0746L122.198 30.012L122.27 29.8874L122.342 29.7625L122.413 29.6379L122.485 29.5755L122.557 29.4507L122.629 29.2635L122.701 29.1388L122.773 28.9518L122.845 28.8269L122.916 28.7646L122.988 28.7022L123.06 28.4527L123.132 28.3279L123.204 28.2032L123.276 28.0784L123.347 27.9537L123.419 27.8912L123.491 27.7042L123.563 27.5793L123.635 27.3921L123.707 27.2051L123.778 27.0803L123.85 26.9556L123.922 26.8308L123.994 26.7061L124.066 26.5812L124.138 26.4566L124.21 26.3317L124.281 26.2694L124.363 26.1464L124.281 26.3317L124.21 26.5189L124.138 26.7061L124.066 26.8308L123.994 27.0179L123.922 27.0803L123.85 27.2051L123.778 27.3921L123.707 27.5793L123.635 27.7665L123.563 27.8912L123.491 28.016L123.419 28.2032L123.347 28.5151L123.276 28.7646L123.204 28.8269L123.132 29.0141L123.06 29.1388L122.988 29.2635L122.916 29.3883L122.845 29.6379L122.773 29.825L122.701 29.9497L122.629 30.0746L122.557 30.1992L122.485 30.2616L122.413 30.6359L122.342 30.8231L122.27 30.9478L122.198 31.135L122.126 31.1973L122.054 31.3222L121.982 31.4468L121.91 31.634L121.839 31.7587L121.767 31.8835L121.695 32.0082L121.623 32.0707L121.551 32.1954L121.479 32.5073L121.408 32.7568L121.336 32.8191L121.264 32.944L121.192 33.0687L121.12 33.1935L121.048 33.3182L120.977 33.5677L120.905 33.6926L120.833 33.8172L120.761 33.8796L120.689 34.0044L120.617 34.0667L120.546 34.3163L120.474 34.4411L120.402 34.5658L120.33 34.753L120.258 34.8153L120.186 34.9402L120.114 35.0648L120.043 35.3143L119.971 35.4392L119.899 35.5639L119.827 35.6263L119.612 36.1253L119.468 36.4997L119.396 36.6243L119.324 36.749L119.252 36.8738L119.18 36.9362L119.109 37.1234L119.037 37.248L118.965 37.3106L118.893 37.4352L118.821 37.5601L118.749 37.6224L118.678 37.8096L118.606 37.9343L118.534 38.0591L118.462 38.1214L118.39 38.2461L118.318 38.3086V38.5581H122.126L122.198 38.4956L122.27 38.371L122.342 38.3086L122.413 38.1838L122.485 38.1214L122.557 38.0591L122.629 37.8719L122.701 37.7471L122.773 37.6847L122.845 37.5601L122.916 37.4975L122.988 37.3729L123.06 37.3106L123.132 37.1857L123.204 37.061L123.347 36.9362L123.419 36.8115L123.491 36.6867L123.563 36.562L123.635 36.4997L123.707 36.3748L123.778 36.3125L123.85 36.1876L123.922 36.1253L123.994 36.0006L124.066 35.8758L124.138 35.751L124.21 35.6887L124.281 35.6263L124.353 35.5015L124.425 35.4392L124.497 35.3143L124.569 35.252L124.641 35.1272L124.712 35.0025L124.784 34.9402L124.856 34.8776L124.928 34.753L125 34.6281L125.072 34.5034L125.144 34.4411L125.215 34.3786L125.287 34.2539L125.359 34.1916L125.431 34.0667L125.503 33.9421L125.575 33.7549L125.647 33.6926L125.718 33.63L125.79 33.5054L125.862 33.3182L125.934 33.1935L126.006 33.0687L126.078 32.944L126.149 32.8816L126.221 32.8191L126.293 32.6945L126.365 32.5698L126.437 32.4449L126.509 32.3826L126.58 32.2578L126.652 32.1954L126.724 32.0707L126.796 31.9459L126.868 31.8212L126.94 31.6963L127.012 31.634L127.083 31.5717L127.155 31.4468L127.227 31.3222L127.299 31.2596L127.371 31.0726L127.443 30.9478L127.514 30.8231L127.586 30.7606L127.658 30.6983L127.73 30.5111L127.802 30.3864L127.874 30.2616L127.946 30.1369L128.017 30.012L128.089 29.9497L128.161 29.825L128.233 29.6379L128.305 29.513L128.377 29.3883L128.448 29.2635L128.52 29.2013L128.592 29.1388L128.664 28.8892L128.736 28.7646L128.808 28.6397L128.88 28.5151L128.951 28.3902L129.023 28.3279L129.095 28.2032L129.167 28.016L129.239 27.9537L129.311 27.8288L129.382 27.7042L129.454 27.5793L129.526 27.517L129.598 27.3298L129.67 27.2051L129.742 27.0803L129.814 26.9556L129.885 26.8308L129.957 26.7684L130.029 26.7061L130.101 26.4566L130.173 26.3317L130.245 26.2071L130.317 26.0823V26.2071L130.245 26.3317L130.173 26.4566L130.101 26.6436L130.029 26.7684L129.957 26.8931L129.885 27.2051L129.814 27.3921L129.742 27.517L129.67 27.6416L129.598 27.7665L129.526 27.8912L129.454 28.1407L129.382 28.3279L129.311 28.4527L129.239 28.5774L129.167 28.7022L129.095 28.7646L129.023 28.8892L128.951 29.2013L128.88 29.3259L128.808 29.4507L128.736 29.5755L128.664 29.6379L128.592 29.7625L128.52 29.9497L128.448 30.1369L128.377 30.2616L128.305 30.3241L128.233 30.4487L128.161 30.5111L128.089 30.6359L128.017 30.8855L127.946 31.0101L127.874 31.135L127.802 31.2596L127.73 31.3845L127.658 31.4468L127.586 31.634L127.514 31.8212L127.443 31.9459L127.371 32.0707L127.299 32.2578L127.227 32.3826L127.155 32.4449L127.083 32.6321L127.012 32.8191L126.94 32.8816L126.868 33.0063L126.796 33.131L126.724 33.1935L126.652 33.3182L126.58 33.5054L126.509 33.63L126.437 33.7549L126.365 33.8172L126.293 33.9421L126.221 34.0667L126.149 34.2539L126.078 34.3786L126.006 34.4411L125.934 34.5658L125.862 34.6906L125.79 34.8153L125.718 34.8776L125.647 35.0648L125.575 35.1897L125.503 35.252L125.431 35.3767L125.359 35.5015L125.287 35.5639L125.215 35.751L125.144 35.9381L125.072 36.0006L125 36.1253L124.928 36.1876L124.856 36.2501L124.784 36.4371L124.712 36.6243L124.641 36.749L124.569 36.8115L124.497 36.9362L124.425 36.9985L124.353 37.1234L124.281 37.3106L124.21 37.4975L124.138 37.5601L124.066 37.6847L123.85 38.5581H128.736L128.808 38.4333L128.88 38.371L128.951 38.2461L129.023 38.1838L129.095 38.1214L129.167 37.9343L129.239 37.8096L129.311 37.7471L129.382 37.6224L129.454 37.4975L129.526 37.3729L129.598 37.248L129.67 37.061L129.742 36.9362L129.814 36.8738L129.885 36.749L129.957 36.6243L130.029 36.4997L130.101 36.3748L130.173 36.2501L130.245 36.063L130.317 35.9381L130.388 35.8134L130.46 35.6887L130.532 35.5639L130.604 35.3767L130.676 35.252L130.748 35.1272L130.819 35.0025L130.891 34.8776L130.963 34.8153L131.035 34.5658L131.107 34.4411L131.179 34.2539L131.25 34.1291L131.322 34.0667L131.394 34.0044L131.466 33.7549L131.538 33.5677L131.61 33.443L131.682 33.3182L131.753 33.1935L131.825 33.0687L131.897 32.8816L131.969 32.7568L132.041 32.6321L132.113 32.4449L132.185 32.3202L132.256 32.1954L132.328 32.0707L132.4 31.9459L132.472 31.7587L132.544 31.634L132.616 31.4468L132.687 31.3222L132.759 31.1973L132.831 31.135L132.903 30.8855L132.975 30.7606L133.047 30.5736L133.119 30.4487L133.19 30.3864L133.262 30.2616L133.334 30.0746L133.406 29.9497L133.478 29.7625L133.55 29.5755L133.621 29.4507L133.693 29.2635L133.765 29.1388L133.837 28.9518L133.909 28.7646L133.981 28.5774L134.052 28.4527L134.124 28.3279L134.196 28.1407L134.268 27.9537L134.34 27.7665L134.412 27.6416L134.484 27.4546L134.555 27.2675L134.627 27.1426L134.699 27.0179L134.771 26.7684L134.843 26.5812L134.915 26.3317L134.987 26.2694L135.058 26.0823L135.13 25.9575L135.202 25.8328L135.274 25.5833L135.346 25.3961L135.418 25.2089L135.489 25.0842L135.561 24.8971L135.633 24.7722L135.705 24.5852L135.777 24.3357L135.849 24.2108L135.92 24.0237L135.992 23.899L136.064 23.7741L136.136 23.5246L136.208 23.3376L136.28 23.1504L136.351 22.9632L136.423 22.7761L136.495 22.6514L136.567 22.5265L136.639 22.2148L136.711 22.0276L136.783 21.8404L136.855 21.6532L137.07 21.0295L137.142 20.9672L137.214 20.7177L137.285 20.4682L137.357 20.281L137.429 20.0938L137.501 19.9066L137.573 19.5949L137.645 19.2829L137.716 19.0333L137.788 18.9087L137.86 18.6592L137.932 18.5343L138.004 18.2848L138.076 17.9729L138.148 17.7234L138.219 17.4116L138.291 17.2867L138.363 17.0372L138.435 16.9125L138.507 16.6007L138.579 16.3511L138.651 16.0391L138.722 15.852L138.794 15.6649L138.866 15.4779L138.938 15.2907L139.01 14.9788L139.082 14.7293L139.153 14.4173L139.225 14.2303L139.297 14.0431L139.369 13.9182L139.441 13.544L139.513 13.2945L139.585 12.9826L139.656 12.8578L139.545 12.0732L133.55 12.4836L133.478 12.5459L133.406 12.6708L133.334 12.7955L133.262 12.9201L133.19 13.1697L133.119 13.3569L133.047 13.4817L132.975 13.6064L132.903 13.7312L132.831 13.9182L132.759 14.1054L132.687 14.4798L132.616 14.7293L132.544 14.854L132.472 14.9788L132.4 15.1658L132.328 15.353L132.256 15.6649L132.185 15.852L132.113 15.9769L132.041 16.1016L131.969 16.2263L131.897 16.3511L131.825 16.5381L131.753 16.7877L131.682 16.9748L131.61 17.0997L131.538 17.2244L131.466 17.3492L131.394 17.4116L131.322 17.7234L131.25 17.8483L131.107 18.0978L131.035 18.2224L130.963 18.2848L130.891 18.4096L130.819 18.6592L130.748 18.8463L130.676 18.971L130.604 19.0959L130.532 19.2829L130.46 19.4076L130.388 19.7196L130.317 19.9691L130.245 20.0938L130.173 20.1561L130.101 20.281L130.029 20.3433L129.957 20.4682L129.885 20.7177L129.814 20.8424L129.742 20.9672L129.67 21.0919L129.598 21.2167L129.526 21.4037L129.454 21.6532L129.382 21.8404L129.311 21.9028L129.239 22.0276L129.095 22.2771L129.167 22.0276L129.239 21.8404L129.311 21.5909L129.382 21.4663L129.454 21.2167L129.526 21.0295L129.598 20.78L129.67 20.5305L129.742 20.2187L129.814 20.0938L129.885 19.8443L129.957 19.7196L130.029 19.47L130.101 19.0959L130.173 18.8463L130.245 18.5968L130.317 18.4096L130.388 18.1601L130.46 18.0353L130.532 17.5987L130.604 17.2867L130.676 16.9125L130.748 16.663L130.819 16.4758L130.891 16.164L130.963 15.9769L131.035 15.5402L131.107 15.1658L131.179 14.7916L131.25 14.5421L131.322 14.2926L131.394 14.1054L131.466 13.7312L131.538 13.2945L131.61 12.9201V12.4836H125.575L125.503 12.6708Z" fill="white"/>
<path fill-rule="evenodd" clip-rule="evenodd" d="M146.589 19.5617L146.517 19.8123L146.445 20.0628L146.373 20.4385L146.301 20.6891L146.229 20.9396L146.157 21.1276L146.085 21.3782L146.013 21.6287L145.941 21.8792L145.869 22.2551L145.797 22.5056L145.725 22.6935L145.653 22.944L145.581 23.1946L145.509 23.3826L145.437 23.8836L145.364 24.0715L145.292 24.322L145.22 24.5099L145.148 24.7606L145.076 24.9485L145.004 25.199L144.932 25.6375L144.86 25.8881L144.788 26.0759L144.716 26.3265L144.644 26.577L144.572 26.8275L144.5 27.2034L144.428 27.4539L144.356 27.6418L144.284 27.8923L144.212 28.1428L144.14 28.3934L144.068 28.5814L143.996 29.0198V29.2078L142.328 29.2059L142.411 29.0198L142.483 28.832L142.555 28.7066L142.627 28.5188L142.699 28.3934L142.771 28.1428L142.843 28.0176L142.915 27.8923L142.987 27.7044L143.059 27.5793L143.131 27.4539L143.203 27.2661L143.275 27.078L143.347 26.8902L143.419 26.7648L143.491 26.6397L143.563 26.5143L143.635 26.3891L143.707 26.0759L143.779 26.0133L143.851 25.8254L143.924 25.7001L143.996 25.5749L144.068 25.4495L144.14 25.2617L144.212 25.0738L144.284 24.8857L144.356 24.7606L144.428 24.6979L144.5 24.5099L144.572 24.3847L144.644 24.1342L144.716 24.0088L144.788 23.8836L144.86 23.7583L144.932 23.6331L145.004 23.5078L145.076 23.3199L145.148 23.0694L145.22 22.8814L145.292 22.6935L145.364 22.5682L145.437 22.3803L145.509 22.2551L145.581 22.0046L145.653 21.754L145.725 21.566L145.797 21.4408L145.869 21.2528L145.941 21.065L146.013 20.9396L146.085 20.6264L146.157 20.4385L146.229 20.3133L146.301 20.188L146.373 20.0001L146.445 19.8123L146.517 19.6243L146.589 19.4364L146.661 19.3111L146.743 19.1876L146.661 19.3737L146.589 19.5617ZM144.5 13.298L144.428 13.5485L144.356 13.6739L144.284 13.8617L144.212 14.0497L144.14 14.1749L144.068 14.3628L143.996 14.7387L143.924 14.9265L143.851 15.1144L143.779 15.2398L143.707 15.3651L143.635 15.553L143.563 15.8662L143.491 16.1166L143.419 16.2418L143.347 16.4298L143.275 16.555L143.203 16.6804L143.131 16.8682L143.059 17.1815L142.987 17.3693L142.915 17.4947L142.843 17.6825L142.771 17.8079L142.699 17.9332L142.627 18.1211L142.555 18.4341L142.483 18.6221L142.411 18.7473L142.339 18.8727L142.266 18.9979L142.194 19.0605L142.122 19.4364L142.05 19.5617L141.978 19.6869L141.906 19.8123L141.834 19.875L141.762 20.0001L141.69 20.2507L141.618 20.6264L141.546 20.8144L141.474 21.0023L141.402 21.065L141.33 21.1903L141.258 21.3782L141.186 21.6287L141.114 21.8792L141.042 21.9419L140.97 22.1298L140.898 22.2551L140.826 22.3176L140.754 22.5056L140.682 22.7562L140.609 22.944L140.537 23.0694L140.466 23.1946L140.393 23.2572L140.321 23.3826L140.249 23.6331L140.177 23.8836L140.105 23.9463L140.033 24.0715L139.961 24.2593L139.889 24.322L139.817 24.4474L139.745 24.6979L139.673 24.8231L139.601 24.9485L139.529 25.0738L139.457 25.1363L139.385 25.2617L139.313 25.5749L139.241 25.7001L139.169 25.8254L139.097 25.8881L139.025 26.0133L138.953 26.0759L138.881 26.2637L138.808 26.4516L138.736 26.6397L138.664 26.7648L138.592 26.8902L138.52 27.0155L138.448 27.1407L138.376 27.3287L138.304 27.5166L138.232 27.5793L138.16 27.7044L138.088 27.8298L138.016 27.955L137.944 28.0803L137.872 28.2682L137.8 28.3934L137.728 28.5814L137.656 28.7066L137.584 28.7692L137.512 28.832L137.44 29.1452L137.368 29.2705L137.296 29.4584L137.224 29.7716L137.151 29.8967L137.079 29.9594L137.007 30.0846L136.935 30.2726L136.863 30.3978L136.791 30.4605L136.719 30.5858L136.647 30.711L136.575 30.8363L136.503 30.9615L136.431 31.0869L136.359 31.2122L136.287 31.2747L136.215 31.3374L136.143 31.4628L136.071 31.6506L135.999 31.7758L135.927 31.9011L135.855 32.0263L135.783 32.089L135.711 32.1517L135.639 32.2769L135.566 32.5275L135.494 32.6527L135.422 32.7781L135.35 32.8407V32.9659H135.206L135.134 33.0913L135.062 33.3418L134.99 33.467L134.918 33.5923L134.846 33.655L134.774 33.7802L134.702 33.8429L134.63 34.0307L134.558 34.1561L134.486 34.2813L134.414 34.4066L134.342 34.4693L134.27 34.5945L134.198 34.6572L134.126 34.9077L134.054 34.9704L133.981 35.0957L133.909 35.2209L133.837 35.2836L133.765 35.4088L133.693 35.5968L133.621 35.722L133.549 35.7846L133.477 35.9098L133.405 36.0352L133.333 36.0978L133.261 36.1604L133.189 36.3484L133.117 36.4736L133.045 36.5362L132.973 36.6616L132.901 36.7242L132.829 36.7868L132.757 37.0373L132.685 37.1L132.613 37.2253L132.541 37.288L132.468 37.3505L132.252 37.7264L132.181 37.8515L131.82 38.666H137.8L137.872 38.6033L137.944 38.478L138.016 38.3528L138.088 38.1647L138.16 38.0396L138.232 37.8515L138.304 37.789L138.376 37.6637L138.448 37.5385L138.52 37.4758L138.592 37.3505L138.664 37.1626L138.736 37.0373L138.808 36.9121L138.881 36.7868L138.953 36.6616L139.025 36.4736L139.097 36.3484L139.169 36.223L139.241 36.0978L139.313 35.9725L139.385 35.8473L139.457 35.7846L139.529 35.5968L139.601 35.4714L139.673 35.3462L139.745 35.2209L139.817 35.0957L139.889 34.9704L139.961 34.845L140.033 34.7198L140.105 34.5945L140.177 34.4693L140.249 34.344L140.321 34.2186L140.754 34.1561L141.762 34.344L141.69 34.5318L141.618 34.7825L141.546 34.9704L141.474 35.033L141.402 35.2209L141.33 35.3462L141.258 35.4088L141.186 35.7846L141.114 35.9725L141.042 36.0978L140.97 36.223L140.898 36.2857L140.826 36.4736L140.754 36.6616L140.682 36.9121L140.609 37.0373L140.537 37.2253L140.466 37.3505C140.369 37.601 140.273 37.8515 140.177 38.1021V38.666H146.085L146.157 38.6033L146.229 38.4153L146.301 38.2275L146.373 38.0396L146.445 37.8515L146.517 37.601L146.589 37.2253L146.661 36.9748L146.733 36.6616L146.805 36.5362L146.877 36.2857L146.949 36.1604L147.022 35.8473L147.093 35.5341L147.166 35.2836L147.238 35.0957L147.309 34.9077L147.382 34.7198L147.454 34.4693L147.526 34.1561L147.598 33.8429L147.67 33.655L147.742 33.4045L147.814 33.1539L147.886 32.9659L147.958 32.5901L148.03 32.3395L148.102 32.0263L148.174 31.7133L148.246 31.5879L148.318 31.3374L148.39 31.0869L148.462 30.711L148.534 30.3978L148.606 30.0846L148.678 29.8967L148.75 29.6462L148.822 29.4584L148.895 29.0198L148.967 28.7066L149.039 28.3309L149.111 28.0803L149.183 27.8923L149.255 27.6418L149.327 27.3912L149.399 26.8902L149.471 26.577L149.543 26.2011L149.615 25.9505L149.687 25.6375L149.759 25.5122L149.831 25.0738L149.903 24.7606L149.975 24.322L150.047 24.0088L150.119 23.7583L150.191 23.5078L150.263 23.132L150.335 22.6308L150.407 22.1924L150.48 21.754L150.552 21.5035L150.624 21.1903L150.696 20.9396L150.768 20.3759L150.912 19.6243L151.272 17.5574L151.344 16.9309L151.416 16.1166L151.56 15.2398L151.632 14.7387L151.704 13.9244L151.776 13.4233L151.848 12.9221L151.92 12.7343L151.985 11.5713L144.902 12.4837L144.5 13.298Z" fill="white"/>
<path fill-rule="evenodd" clip-rule="evenodd" d="M155.853 12.7995L155.781 13.0489L155.71 13.2984L155.638 13.5476L155.566 14.171L155.494 14.6073L155.423 14.9187L155.351 15.168L155.279 15.4174L155.208 15.6666L155.136 15.9785L155.064 16.4147L154.993 16.664L154.921 16.9134L154.849 17.1002L154.777 17.2874L154.706 17.5366L154.562 18.4091L154.49 18.7209L154.419 18.9702L154.347 19.1572L154.275 19.4066L154.204 19.6558L154.132 19.9675L154.06 20.279L153.989 20.4037L153.917 20.5906L153.845 20.7777L153.773 20.9647L153.702 21.4011L153.63 21.7126L153.558 21.9618L153.486 22.0865L153.415 22.336L153.343 22.5228L153.271 22.7722L153.199 23.2086L153.128 23.5201L153.056 23.7071L152.985 23.9564L152.913 24.0809L152.841 24.3303L152.769 24.7045L152.698 25.0161L152.626 25.2031L152.554 25.3899L152.483 25.5769L152.411 25.7016L152.339 25.8886L152.267 26.2625L152.196 26.512L152.124 26.6989L152.052 26.8236L151.981 26.9484L151.909 27.1352L151.837 27.5091L151.765 27.8208L151.694 27.9454L151.622 28.0701L151.55 28.257L151.478 28.444L151.407 28.5687L151.335 28.9427L151.263 29.2544L151.192 29.3791L151.12 29.566L151.048 29.6906L150.976 29.8153L150.905 30.1892L150.833 30.5009L150.761 30.5634L150.69 30.7502L150.618 30.8749L150.546 30.9996L150.475 31.1866L150.403 31.4983L150.331 31.7477L150.26 31.8722L150.188 32.0591L150.116 32.1838L150.044 32.3083L149.973 32.6201L149.901 32.9319L149.829 32.9941L149.757 33.1811L149.686 33.3679L149.614 33.4926L149.542 33.6798L149.471 33.9913L149.399 34.1784L149.327 34.303L149.255 34.4277L149.184 34.5522L149.112 34.6147L149.04 35.0509L148.969 35.3626L148.897 35.4872L148.825 35.6743L148.753 35.799L148.682 35.8612L148.61 36.0482L148.538 36.2975L148.467 36.4845L148.395 36.5469L148.323 36.7339L148.252 36.8584L148.18 36.9831L148.108 37.2948L148.036 37.4193L147.965 37.544L147.893 37.731L147.821 37.8557L147.749 37.9182L147.678 38.105V38.666H153.845L153.917 38.5414L153.989 38.292L154.06 38.105L154.132 37.9182L154.204 37.731L154.275 37.6063L154.347 37.3571L154.419 37.0454L154.49 36.7961L154.562 36.6714L154.634 36.5469L154.706 36.3599L154.777 36.1728L154.849 35.9858L154.921 35.799L154.993 35.6118L155.064 35.4249L155.136 35.3001L155.208 35.1133L155.279 34.8639L155.351 34.6147L155.423 34.303L155.494 34.1784L155.566 33.929L155.638 33.8043L155.71 33.6798L155.781 33.3679L155.853 33.1187L155.925 32.9319L155.996 32.7447L156.068 32.5577L156.14 32.4955L156.212 32.1838L156.283 31.9969L156.355 31.7477L156.427 31.5604L156.498 31.3736L156.57 31.3112L156.642 31.1241L156.714 30.8127L156.785 30.5634L157.072 29.7529L157.144 29.566L157.216 29.2544L157.287 28.9427L157.359 28.6934L157.431 28.5064L157.574 28.0078V27.6961L158.947 27.6991L158.865 27.8208L158.793 28.0701L158.722 28.3817L158.65 28.5687L158.578 28.818L158.506 29.0051L158.435 29.1919L158.947 27.6991L158.148 30.1892L158.076 30.3139L158.004 30.5009L157.933 30.8749L157.861 31.1241L157.789 31.2488L157.717 31.3736L157.646 31.5604L157.574 31.7477L157.502 31.8722L157.431 32.2462L157.359 32.5577L157.287 32.6201L157.216 32.8694L157.144 32.9941L157.072 33.2432L157 33.6798L156.929 33.929L156.857 34.0537L156.785 34.1784L156.714 34.3654L156.642 34.5522L156.57 34.6147L156.498 34.9886L156.427 35.238L156.355 35.3626L156.283 35.5496L156.212 35.799L156.14 35.9858L156.068 36.3599L155.996 36.6092L155.925 36.7339L155.853 36.9208L155.781 37.0454L155.71 37.1701L155.638 37.2948L155.566 37.6063L155.494 37.8557L155.423 37.9803L155.351 38.1674V38.666H161.949L162.02 38.6036L162.092 38.3542L162.164 38.105L162.235 37.9182L162.307 37.6063L162.379 37.2948L162.451 37.0454L162.522 36.8584L162.594 36.6714L162.666 36.5469L162.737 36.3599L162.809 35.9858L162.881 35.7365L162.952 35.4249L163.024 35.3001L163.096 35.0509L163.168 34.9262L163.239 34.5522L163.311 34.2407L163.383 33.929L163.455 33.8043L163.526 33.5551L163.598 33.3679L163.67 33.1811L163.741 32.7447L163.813 32.4955L163.885 32.1838L163.957 32.0591L164.028 31.8098L164.1 31.6851L164.172 31.3112L164.243 30.9996L164.315 30.6881L164.387 30.5009L164.458 30.1892L164.53 29.94L164.602 29.6283L164.674 29.2544L164.745 29.0051L164.817 28.6934L164.889 28.5064L164.961 28.257L165.032 28.0701L165.104 27.5716L165.175 27.1976L165.247 26.8236L165.319 26.5742L165.391 26.3873L165.463 26.0757L165.534 25.951L165.606 25.5146L165.678 25.2031L165.749 24.829L165.821 24.7045L165.893 24.455L165.964 24.2682L166.036 23.7696L166.18 23.1461L166.753 20.5906L166.969 19.4066L167.04 18.9077L167.112 18.3468L167.255 17.7859L167.614 15.8538L168.431 8.2002L162.978 10.3663L162.379 13.1113L162.307 13.4231L162.235 13.6723L162.164 13.9216L162.092 14.4825L162.02 14.8565L161.949 15.1059L161.877 15.4798L161.805 15.7914L161.734 16.1031L161.662 16.7263L161.59 17.1626L161.518 17.4744L161.446 17.5989L161.088 19.2194L161.016 19.4066L160.945 19.6558L160.873 19.9051L160.801 20.2168L160.729 20.84L160.658 21.1516L160.586 21.3386L160.514 21.5258L160.443 21.5879C160.339 21.8116 159.34 21.7274 159.367 21.6504L159.439 21.4011L159.51 20.9647L159.582 20.5906L159.654 20.2168L159.726 19.9675L159.797 19.6558L159.869 19.4688L159.941 19.1572L160.012 18.7209L160.084 18.3468L160.156 17.9106L160.227 17.7236L160.299 17.4744L160.371 17.225L160.443 16.7263L160.514 16.3523L160.586 15.9785L160.658 15.7291L160.729 15.4798L160.801 15.2306L160.873 14.9187L160.945 14.4825L161.016 14.171L161.088 13.7346L161.16 13.4852L161.231 13.2358L161.425 11.8595L161.347 10.4541L156.185 11.6811L155.853 12.7995Z" fill="white"/>
<path fill-rule="evenodd" clip-rule="evenodd" d="M8.63143 43.432H4.28374L2.53473 50.8481H0.0957031L2.26955 41.6554H9.05412L8.63143 43.432ZM16.4016 46.452C16.4016 47.1031 16.2895 47.7122 16.0674 48.2791C15.8431 48.8481 15.5304 49.335 15.1249 49.7438C14.7044 50.1674 14.2148 50.494 13.6606 50.7217C13.1043 50.9493 12.4551 51.0652 11.7132 51.0652C10.6565 51.0652 9.84553 50.8165 9.28054 50.3234C8.71762 49.8303 8.43517 49.1453 8.43517 48.2728C8.43517 47.6554 8.54087 47.0694 8.75011 46.5131C8.9614 45.9588 9.27195 45.4678 9.68596 45.0442C10.085 44.6291 10.5766 44.3002 11.1611 44.06C11.7434 43.8198 12.399 43.6976 13.1236 43.6976C14.1847 43.6976 14.9955 43.942 15.5584 44.4309C16.1212 44.9178 16.4016 45.5921 16.4016 46.452ZM13.445 48.7238C13.639 48.4351 13.7857 48.1211 13.8849 47.7797C13.9842 47.4383 14.0337 47.0231 14.0337 46.5321C14.0337 46.1085 13.9388 45.7818 13.7491 45.5542C13.5593 45.3245 13.2574 45.2107 12.8454 45.2107C12.5242 45.2107 12.2437 45.2865 12.0022 45.4404C11.7585 45.5921 11.545 45.8071 11.3595 46.0874C11.187 46.3466 11.0511 46.6691 10.9519 47.0505C10.8527 47.434 10.8032 47.826 10.8032 48.2307C10.8032 48.7028 10.911 49.042 11.1266 49.2465C11.3401 49.4488 11.6356 49.5521 12.0108 49.5521C12.2847 49.5521 12.5478 49.4783 12.8002 49.3328C13.0524 49.1853 13.2681 48.983 13.445 48.7238ZM25.4679 46.1316C25.4679 46.7681 25.3623 47.3877 25.1488 47.9862C24.9352 48.5847 24.6462 49.1011 24.2797 49.5331C23.8958 49.9904 23.4644 50.3465 22.9814 50.6016C22.4983 50.8566 21.9591 50.983 21.3617 50.983C20.9822 50.983 20.6329 50.9408 20.3159 50.8566C19.9967 50.7722 19.7098 50.6543 19.4533 50.5025L18.7695 53.3918H16.4836L18.7265 43.9146H21.0146L20.8421 44.6374C21.2733 44.3487 21.6702 44.1253 22.0347 43.963C22.3991 43.8029 22.8024 43.7228 23.2445 43.7228C23.9604 43.7228 24.5104 43.9356 24.8922 44.3613C25.276 44.7892 25.4679 45.3772 25.4679 46.1316ZM22.5048 48.5636C22.6859 48.3045 22.8239 48.001 22.921 47.6532C23.018 47.3055 23.0677 46.9282 23.0677 46.5194C23.0677 46.1464 22.9836 45.8577 22.8131 45.6596C22.645 45.4594 22.3452 45.3582 21.9117 45.3582C21.6874 45.3582 21.4674 45.3983 21.254 45.4742C21.0383 45.55 20.8119 45.6491 20.5703 45.7734L19.7507 49.2612C19.8845 49.3182 20.042 49.3624 20.2209 49.394C20.4 49.4256 20.5832 49.4403 20.773 49.4403C21.1569 49.4403 21.4955 49.3602 21.791 49.2001C22.0865 49.04 22.3236 48.8271 22.5048 48.5636ZM33.3135 50.8481H31.0276L31.7414 47.8471H29.1319L28.4246 50.8481H26.1364L27.7733 43.9146H30.055L29.4856 46.3466H32.0886L32.6644 43.9146H34.9504L33.3135 50.8481ZM43.6307 46.452C43.6307 47.1031 43.5185 47.7122 43.2964 48.2791C43.0722 48.8481 42.7594 49.335 42.3539 49.7438C41.9335 50.1674 41.4439 50.494 40.8897 50.7217C40.3333 50.9493 39.6842 51.0652 38.9423 51.0652C37.8856 51.0652 37.0747 50.8165 36.5097 50.3234C35.9468 49.8303 35.6642 49.1453 35.6642 48.2728C35.6642 47.6554 35.7699 47.0694 35.9792 46.5131C36.1905 45.9588 36.501 45.4678 36.9151 45.0442C37.3141 44.6291 37.8058 44.3002 38.3902 44.06C38.9725 43.8198 39.6281 43.6976 40.3527 43.6976C41.4138 43.6976 42.2246 43.942 42.7875 44.4309C43.3503 44.9178 43.6307 45.5921 43.6307 46.452ZM40.6741 48.7238C40.8681 48.4351 41.0147 48.1211 41.114 47.7797C41.2132 47.4383 41.2627 47.0231 41.2627 46.5321C41.2627 46.1085 41.1678 45.7818 40.9781 45.5542C40.7883 45.3245 40.4864 45.2107 40.0745 45.2107C39.7532 45.2107 39.4728 45.2865 39.2312 45.4404C38.9876 45.5921 38.774 45.8071 38.5886 46.0874C38.416 46.3466 38.2803 46.6691 38.181 47.0505C38.0818 47.434 38.0323 47.826 38.0323 48.2307C38.0323 48.7028 38.14 49.042 38.3557 49.2465C38.5691 49.4488 38.8646 49.5521 39.2399 49.5521C39.5138 49.5521 39.7769 49.4783 40.0292 49.3328C40.2815 49.1853 40.4972 48.983 40.6741 48.7238ZM51.3642 50.8481H49.0761L50.3593 45.4214H48.5024C48.442 45.6469 48.3796 45.8935 48.3083 46.159C48.2393 46.4246 48.1855 46.6269 48.1488 46.766C48.0302 47.2317 47.9072 47.6427 47.7778 47.9989C47.6505 48.355 47.5169 48.6648 47.3767 48.9282C47.1503 49.3561 46.8721 49.7333 46.5421 50.06C46.2143 50.3887 45.8628 50.6184 45.4875 50.7491C45.3065 50.806 45.1424 50.846 44.9959 50.8629C44.847 50.8818 44.6702 50.8923 44.4653 50.8923C44.2669 50.8923 44.062 50.884 43.8506 50.8692C43.6415 50.8544 43.5165 50.8481 43.4798 50.8481L43.9025 49.0694H43.9715C43.9887 49.0694 44.0211 49.0737 44.0663 49.082C44.1116 49.0905 44.1569 49.0948 44.2001 49.0948C44.4567 49.0948 44.6507 49.0631 44.7845 48.9999C44.916 48.9345 45.0583 48.806 45.2094 48.6121C45.3862 48.3866 45.5501 48.1085 45.6968 47.7797C45.8434 47.4509 46.0159 46.9156 46.2143 46.1738C46.3113 45.8155 46.4041 45.4783 46.4903 45.158C46.5767 44.8398 46.6824 44.4246 46.8073 43.9146H53.001L51.3642 50.8481ZM58.6751 48.3656C58.6751 48.1401 58.5975 47.9609 58.4465 47.8281C58.2956 47.6974 58.0497 47.6321 57.7068 47.6321H56.5379L56.1088 49.453H57.3983C57.668 49.453 57.8901 49.4087 58.0669 49.3202C58.2438 49.2317 58.3753 49.1305 58.4595 49.0146C58.5479 48.886 58.6061 48.7659 58.6341 48.6522C58.66 48.5405 58.6751 48.4435 58.6751 48.3656ZM61.0495 48.0768C61.0495 48.5279 60.9459 48.9493 60.7368 49.335C60.5276 49.7228 60.2408 50.0409 59.8741 50.2917C59.5765 50.494 59.2595 50.6374 58.9274 50.7217C58.5932 50.806 58.1596 50.8481 57.6248 50.8481H53.4992L55.1361 43.9146H57.4178L56.8679 46.2307H58.4918C59.3328 46.2307 59.9712 46.393 60.4025 46.7196C60.8338 47.0484 61.0495 47.4994 61.0495 48.0768ZM63.4886 50.8481H61.2004L62.8373 43.9146H65.1254L63.4886 50.8481ZM77.2799 50.8481H74.8861L73.4973 48.0811H72.8136L72.1558 50.8481H69.8828L70.5384 48.0811H69.9023L67.4869 50.8481H64.8537L68.1576 47.2043C68.0648 47.1222 67.9915 47.0168 67.9397 46.8882C67.888 46.7576 67.8471 46.6332 67.8233 46.5131C67.8017 46.414 67.7801 46.3234 67.7564 46.2391C67.7327 46.1548 67.6832 46.0642 67.6076 45.9715C67.5451 45.8871 67.4631 45.8218 67.364 45.7734C67.2647 45.7228 67.1354 45.6996 66.9758 45.6996H66.3374L66.7623 43.9146C66.8377 43.9146 66.9456 43.9125 67.09 43.9082C67.2324 43.9041 67.392 43.9019 67.5645 43.9019C68.0261 43.9019 68.4078 43.9884 68.7032 44.159C69.0009 44.3298 69.2272 44.6417 69.3826 45.0948C69.4171 45.196 69.458 45.3245 69.5033 45.4762C69.5507 45.628 69.596 45.7692 69.6413 45.8956C69.76 46.2412 69.8915 46.4646 70.0381 46.5658C70.1826 46.6669 70.4522 46.7176 70.849 46.7176L71.5132 43.9146H73.7863L73.1242 46.7176C73.5189 46.7133 73.7863 46.6628 73.9221 46.5658C74.0601 46.4688 74.2801 46.2349 74.582 45.8598C74.664 45.7565 74.7632 45.6237 74.884 45.4636C75.0026 45.3034 75.1105 45.1664 75.2032 45.0505C75.505 44.6711 75.8263 44.3867 76.165 44.1928C76.5057 43.9989 76.9758 43.9019 77.5776 43.9019C77.7458 43.9019 77.927 43.9041 78.121 43.9082C78.3151 43.9125 78.4466 43.9146 78.5135 43.9146L78.0951 45.6996H77.5086C77.3403 45.6996 77.198 45.7228 77.0858 45.7692C76.9716 45.8177 76.8659 45.883 76.7688 45.9652C76.6847 46.0305 76.6028 46.119 76.5251 46.2307C76.4475 46.3402 76.3828 46.4309 76.3332 46.5005C76.1693 46.7365 76.0162 46.9199 75.876 47.0505C75.7337 47.1833 75.5892 47.2845 75.4426 47.3539L77.2799 50.8481ZM85.7273 50.8481H83.4413L84.1551 47.8471H81.5456L80.8383 50.8481H78.5501L80.1871 43.9146H82.4687L81.8993 46.3466H84.5023L85.0782 43.9146H87.3641L85.7273 50.8481ZM93.0382 48.3656C93.0382 48.1401 92.9605 47.9609 92.8095 47.8281C92.6587 47.6974 92.4127 47.6321 92.0699 47.6321H90.901L90.4718 49.453H91.7614C92.031 49.453 92.2532 49.4087 92.43 49.3202C92.6068 49.2317 92.7384 49.1305 92.8225 49.0146C92.9109 48.886 92.9691 48.7659 92.9972 48.6522C93.0231 48.5405 93.0382 48.4435 93.0382 48.3656ZM95.4125 48.0768C95.4125 48.5279 95.309 48.9493 95.0998 49.335C94.8907 49.7228 94.6038 50.0409 94.2372 50.2917C93.9396 50.494 93.6225 50.6374 93.2904 50.7217C92.9562 50.806 92.5227 50.8481 91.9879 50.8481H87.8623L89.4992 43.9146H91.7809L91.2309 46.2307H92.8548C93.6959 46.2307 94.3342 46.393 94.7656 46.7196C95.1968 47.0484 95.4125 47.4994 95.4125 48.0768ZM97.8516 50.8481H95.5635L97.2004 43.9146H99.4885L97.8516 50.8481ZM107.196 50.8481H104.986L105.978 46.6691L101.869 50.8481H99.9866L101.624 43.9146H103.828L102.937 47.649L106.715 43.9146H108.833L107.196 50.8481ZM108.365 40.8398C108.218 41.5606 107.863 42.119 107.3 42.5195C106.739 42.9178 106.014 43.1179 105.13 43.1179C104.356 43.1179 103.761 42.9599 103.349 42.6417C102.935 42.3256 102.73 41.8873 102.73 41.3267C102.73 41.2445 102.734 41.1664 102.743 41.0906C102.749 41.0126 102.762 40.9304 102.779 40.8398H104.537C104.52 40.9262 104.507 41.0084 104.5 41.0864C104.496 41.1644 104.492 41.2318 104.492 41.2908C104.492 41.5501 104.559 41.7439 104.69 41.8745C104.824 42.0031 105.039 42.0685 105.339 42.0685C105.721 42.0685 106.008 41.9631 106.198 41.7544C106.387 41.5437 106.523 41.2381 106.609 40.8398H108.365ZM121.373 50.8481H118.98L117.716 48.0811H116.7L116.049 50.8481H113.761L115.398 43.9146H117.686L117.021 46.7176C117.433 46.7133 117.722 46.6669 117.886 46.5763C118.05 46.4857 118.285 46.2517 118.587 45.8788C118.673 45.7713 118.777 45.6343 118.904 45.4678C119.031 45.3013 119.128 45.1707 119.202 45.0758C119.48 44.7091 119.795 44.4225 120.149 44.2138C120.502 44.0052 120.979 43.9019 121.576 43.9019C121.744 43.9019 121.926 43.9041 122.12 43.9082C122.314 43.9125 122.445 43.9146 122.512 43.9146L122.094 45.6996H121.527C121.298 45.6996 121.102 45.7565 120.931 45.8745C120.763 45.9926 120.582 46.1927 120.388 46.4773C120.2 46.7449 120.067 46.9219 119.987 47.0104C119.909 47.099 119.795 47.1896 119.644 47.2802L121.373 50.8481ZM125.057 53.3918H122.562L124.369 50.7133L123.2 43.9146H125.525L126.137 48.4583L128.842 43.9146H131.242L125.057 53.3918ZM139.241 46.1316C139.241 46.7681 139.135 47.3877 138.922 47.9862C138.708 48.5847 138.419 49.1011 138.052 49.5331C137.669 49.9904 137.237 50.3465 136.754 50.6016C136.271 50.8566 135.732 50.983 135.135 50.983C134.755 50.983 134.406 50.9408 134.089 50.8566C133.77 50.7722 133.483 50.6543 133.226 50.5025L132.542 53.3918H130.256L132.499 43.9146H134.788L134.615 44.6374C135.046 44.3487 135.443 44.1253 135.808 43.963C136.172 43.8029 136.575 43.7228 137.017 43.7228C137.733 43.7228 138.283 43.9356 138.665 44.3613C139.049 44.7892 139.241 45.3772 139.241 46.1316ZM136.278 48.5636C136.459 48.3045 136.597 48.001 136.694 47.6532C136.791 47.3055 136.841 46.9282 136.841 46.5194C136.841 46.1464 136.756 45.8577 136.586 45.6596C136.418 45.4594 136.118 45.3582 135.685 45.3582C135.46 45.3582 135.24 45.3983 135.027 45.4742C134.811 45.55 134.585 45.6491 134.343 45.7734L133.524 49.2612C133.657 49.3182 133.815 49.3624 133.994 49.394C134.173 49.4256 134.356 49.4403 134.546 49.4403C134.93 49.4403 135.268 49.3602 135.564 49.2001C135.859 49.04 136.096 48.8271 136.278 48.5636ZM148.091 46.452C148.091 47.1031 147.979 47.7122 147.757 48.2791C147.533 48.8481 147.22 49.335 146.815 49.7438C146.394 50.1674 145.905 50.494 145.35 50.7217C144.794 50.9493 144.145 51.0652 143.403 51.0652C142.346 51.0652 141.535 50.8165 140.97 50.3234C140.407 49.8303 140.125 49.1453 140.125 48.2728C140.125 47.6554 140.231 47.0694 140.44 46.5131C140.651 45.9588 140.962 45.4678 141.376 45.0442C141.775 44.6291 142.266 44.3002 142.851 44.06C143.433 43.8198 144.089 43.6976 144.813 43.6976C145.875 43.6976 146.685 43.942 147.248 44.4309C147.811 44.9178 148.091 45.5921 148.091 46.452ZM145.135 48.7238C145.329 48.4351 145.475 48.1211 145.575 47.7797C145.674 47.4383 145.723 47.0231 145.723 46.5321C145.723 46.1085 145.629 45.7818 145.439 45.5542C145.249 45.3245 144.947 45.2107 144.535 45.2107C144.214 45.2107 143.934 45.2865 143.692 45.4404C143.448 45.5921 143.235 45.8071 143.049 46.0874C142.877 46.3466 142.741 46.6691 142.642 47.0505C142.543 47.434 142.493 47.826 142.493 48.2307C142.493 48.7028 142.601 49.042 142.816 49.2465C143.03 49.4488 143.325 49.5521 143.701 49.5521C143.975 49.5521 144.238 49.4783 144.49 49.3328C144.742 49.1853 144.958 48.983 145.135 48.7238ZM157.158 46.1316C157.158 46.7681 157.052 47.3877 156.839 47.9862C156.625 48.5847 156.336 49.1011 155.969 49.5331C155.586 49.9904 155.154 50.3465 154.671 50.6016C154.188 50.8566 153.649 50.983 153.052 50.983C152.672 50.983 152.323 50.9408 152.006 50.8566C151.687 50.7722 151.4 50.6543 151.143 50.5025L150.459 53.3918H148.173L150.416 43.9146H152.704L152.532 44.6374C152.963 44.3487 153.36 44.1253 153.724 43.963C154.089 43.8029 154.492 43.7228 154.934 43.7228C155.65 43.7228 156.2 43.9356 156.582 44.3613C156.966 44.7892 157.158 45.3772 157.158 46.1316ZM154.195 48.5636C154.376 48.3045 154.514 48.001 154.611 47.6532C154.708 47.3055 154.757 46.9282 154.757 46.5194C154.757 46.1464 154.673 45.8577 154.503 45.6596C154.335 45.4594 154.035 45.3582 153.602 45.3582C153.377 45.3582 153.157 45.3983 152.944 45.4742C152.728 45.55 152.502 45.6491 152.26 45.7734L151.441 49.2612C151.574 49.3182 151.732 49.3624 151.911 49.394C152.09 49.4256 152.273 49.4403 152.463 49.4403C152.847 49.4403 153.185 49.3602 153.481 49.2001C153.776 49.04 154.013 48.8271 154.195 48.5636ZM164.902 45.4214H162.642L161.359 50.8481H159.071L160.354 45.4214H158.092L158.445 43.9146H165.258L164.902 45.4214Z" fill="white"/>
<path fill-rule="evenodd" clip-rule="evenodd" d="M170.98 0.257812C171.484 0.257812 171.976 0.386182 172.457 0.642931C172.937 0.901026 173.312 1.26859 173.58 1.74829C173.848 2.22664 173.982 2.72663 173.982 3.24688C173.982 3.76172 173.85 4.2563 173.585 4.7306C173.322 5.20625 172.95 5.57515 172.475 5.83731C171.998 6.10082 171.5 6.23188 170.98 6.23188C170.459 6.23188 169.96 6.10082 169.484 5.83731C169.007 5.57515 168.636 5.20625 168.371 4.7306C168.105 4.2563 167.973 3.76172 167.973 3.24688C167.973 2.72663 168.107 2.22664 168.376 1.74829C168.646 1.26859 169.021 0.901026 169.502 0.642931C169.982 0.386182 170.475 0.257812 170.98 0.257812ZM170.98 0.752389C170.557 0.752389 170.146 0.860488 169.747 1.07534C169.347 1.2902 169.034 1.59829 168.809 1.99693C168.583 2.39691 168.47 2.81312 168.47 3.24688C168.47 3.67659 168.582 4.08873 168.803 4.48332C169.025 4.87789 169.335 5.18598 169.733 5.40624C170.131 5.62651 170.546 5.73731 170.98 5.73731C171.412 5.73731 171.828 5.62651 172.226 5.40624C172.624 5.18598 172.933 4.87789 173.153 4.48332C173.373 4.08873 173.483 3.67659 173.483 3.24688C173.483 2.81312 173.372 2.39691 173.148 1.99693C172.923 1.59829 172.611 1.2902 172.21 1.07534C171.809 0.860488 171.398 0.752389 170.98 0.752389ZM169.661 4.89681V1.68343H170.772C171.152 1.68343 171.427 1.7118 171.597 1.77127C171.767 1.83072 171.901 1.93476 172.003 2.08206C172.104 2.2307 172.154 2.38746 172.154 2.55367C172.154 2.78879 172.07 2.99283 171.901 3.16715C171.733 3.34146 171.508 3.43876 171.23 3.46038C171.344 3.50767 171.436 3.56443 171.504 3.63065C171.635 3.75767 171.794 3.96981 171.983 4.26846L172.377 4.89681H171.739L171.453 4.39008C171.227 3.9928 171.046 3.7428 170.907 3.64281C170.812 3.56848 170.672 3.532 170.489 3.532H170.183V4.89681H169.661ZM170.183 3.08878H170.816C171.118 3.08878 171.325 3.04283 171.435 2.95364C171.545 2.86446 171.601 2.74554 171.601 2.5969C171.601 2.50231 171.574 2.41718 171.521 2.34151C171.467 2.26718 171.394 2.21043 171.3 2.17394C171.205 2.13612 171.031 2.11854 170.776 2.11854H170.183V3.08878Z" fill="white"/>
</svg>
